<?xml version="1.0" encoding="UTF-8"?>
<svg width="44px" height="44px" viewBox="0 0 44 44" version="1.1" xmlns="http://www.w3.org/2000/svg" xmlns:xlink="http://www.w3.org/1999/xlink">
    <!-- Generator: Sketch 53.2 (72643) - https://sketchapp.com -->
    <title>delete@2x</title>
    <desc>Created with Sketch.</desc>
    <g id="icon" stroke="none" stroke-width="1" fill="none" fill-rule="evenodd">
        <g transform="translate(-512.000000, -329.000000)" id="delete">
            <g transform="translate(512.000000, 329.000000)">
                <g id="分组-4">
                    <circle id="椭圆形" fill="#CACACA" cx="22" cy="22" r="22"></circle>
                    <g id="trash" transform="translate(11.000000, 11.000000)" fill="#FFFFFF" fill-rule="nonzero">
                        <path d="M17.1703125,18.2321862 C17.1703125,18.9592959 16.56875,19.5511294 15.8296875,19.5511294 L6.1703125,19.5511294 C5.43125,19.5511294 4.8296875,18.9592959 4.8296875,18.2321862 L4.8296875,4.23109738 L17.1703125,4.23109738 L17.1703125,18.2321862 L17.1703125,18.2321862 Z M7.5109375,1.86376351 C7.5109375,1.71157776 7.63125,1.59321107 7.7859375,1.59321107 L14.23125,1.59321107 C14.3859375,1.59321107 14.50625,1.71157776 14.50625,1.86376351 L14.50625,2.65851131 L7.5109375,2.65851131 L7.5109375,1.86376351 Z M21.1921875,2.65851131 L16.1046875,2.65851131 L16.1046875,1.86376351 C16.1046875,0.849191854 15.2625,0.020625 14.23125,0.020625 L7.7859375,0.020625 C6.7546875,0.020625 5.9125,0.849191854 5.9125,1.86376351 L5.9125,2.65851131 L0.8078125,2.65851131 C0.3609375,2.65851131 0,3.01361139 0,3.45325911 C0,3.89290683 0.3609375,4.24800691 0.8078125,4.24800691 L3.2140625,4.24800691 L3.2140625,18.2321862 C3.2140625,19.8385914 4.5375,21.140625 6.1703125,21.140625 L15.8296875,21.140625 C17.4625,21.140625 18.7859375,19.8385914 18.7859375,18.2321862 L18.7859375,4.23109738 L21.1921875,4.23109738 C21.6390625,4.23109738 22,3.8759973 22,3.43634958 C22,2.99670186 21.6390625,2.65851131 21.1921875,2.65851131 Z M11,17.166886 C11.446875,17.166886 11.8078125,16.8117859 11.8078125,16.3721382 L11.8078125,7.9173744 C11.8078125,7.47772668 11.446875,7.1226266 11,7.1226266 C10.553125,7.1226266 10.1921875,7.47772668 10.1921875,7.9173744 L10.1921875,16.3721382 C10.1921875,16.8117859 10.553125,17.166886 11,17.166886 L11,17.166886 Z M7.2359375,17.166886 C7.6828125,17.166886 8.04375,16.8117859 8.04375,16.3721382 L8.04375,7.9173744 C8.04375,7.47772668 7.6828125,7.1226266 7.2359375,7.1226266 C6.7890625,7.1226266 6.428125,7.47772668 6.428125,7.9173744 L6.428125,16.3721382 C6.4453125,16.8117859 6.80625,17.166886 7.2359375,17.166886 L7.2359375,17.166886 Z M14.7640625,17.166886 C15.2109375,17.166886 15.571875,16.8117859 15.571875,16.3721382 L15.571875,7.9173744 C15.571875,7.47772668 15.2109375,7.1226266 14.7640625,7.1226266 C14.3171875,7.1226266 13.95625,7.47772668 13.95625,7.9173744 L13.95625,16.3721382 C13.95625,16.8117859 14.3171875,17.166886 14.7640625,17.166886 L14.7640625,17.166886 Z" id="形状"></path>
                    </g>
                </g>
            </g>
        </g>
    </g>
</svg>