<?xml version="1.0" encoding="UTF-8"?>
<svg width="48px" height="48px" viewBox="0 0 48 48" version="1.1" xmlns="http://www.w3.org/2000/svg" xmlns:xlink="http://www.w3.org/1999/xlink">
    <!-- Generator: Sketch 53.2 (72643) - https://sketchapp.com -->
    <title>device_curtain@2x</title>
    <desc>Created with Sketch.</desc>
    <g id="icon" stroke="none" stroke-width="1" fill="none" fill-rule="evenodd">
        <g transform="translate(-160.000000, -147.000000)" id="device_curtain">
            <g transform="translate(160.000000, 147.000000)">
                <g id="分组-9">
                    <circle id="椭圆形" fill="#D071D7" cx="24" cy="24" r="24"></circle>
                    <g id="chuanglian" transform="translate(11.294118, 12.705882)" fill="#FFFFFF" fill-rule="nonzero">
                        <path d="M24.5368262,0 L0.804517487,0 C0.392199697,0 3.04802302e-05,0.382666941 3.04517769e-05,0.78610318 L3.04517769e-05,22.4038839 C-0.00378379762,22.5862553 0.351786061,22.9864766 0.46542752,23.1206234 C0.893992284,23.647395 1.50776668,23.9801019 2.19372068,24.0575742 C2.29254184,24.0686986 2.39273149,24.0743034 2.49146531,24.0743034 C3.06986324,24.0743034 3.6394971,23.8783893 4.09563512,23.5225233 C4.2830867,23.3757726 4.50903021,23.298215 4.74897875,23.298215 C4.79084817,23.298215 4.83335815,23.3006618 4.87537317,23.3054416 C5.15637585,23.3377904 5.40986352,23.4747823 5.58939543,23.6914088 C5.71683805,23.8442196 5.90097038,23.9444527 6.09511873,23.9663316 C6.12234259,23.9693189 6.15029436,23.9707984 6.17815881,23.9707984 C6.25036755,23.9707984 6.32243073,23.9610397 6.39236838,23.9417783 C6.76639806,23.8765684 7.21709132,23.5430934 7.24038446,23.1899302 C7.25153605,22.7335465 7.24038446,1.57214945 7.24038446,1.57214945 L18.1009301,1.57214945 L18.1009301,23.1899302 C18.1009301,23.5416709 18.5703161,23.8691427 18.9217223,23.9351492 C18.9893885,23.9551786 19.0597264,23.9652657 19.1304288,23.9650797 C19.1598364,23.9650797 19.190234,23.9634011 19.2209227,23.9600439 C19.424301,23.9375106 19.6045608,23.8389846 19.727141,23.6841254 C19.9060615,23.4652512 20.1588503,23.3286008 20.440348,23.2991823 C20.4805401,23.2945601 20.5209738,23.2922326 20.5614432,23.2922118 C20.7953064,23.2922118 21.0298102,23.3722732 21.2203481,23.5164063 C21.6761076,23.8713619 22.2487405,24.0668492 22.832787,24.0668777 C22.9294198,24.0668305 23.0259778,24.0616257 23.1220296,24.0512865 C23.8107206,23.9738711 24.4245823,23.6409935 24.848634,23.1163273 C24.9669923,22.9765472 25.34801,22.5826989 25.3412841,22.4038555 L25.3412841,0.78607471 C25.3373825,0.383321287 24.9451841,-2.780309e-08 24.5368262,0 Z M2.49324142,22.5846905 C2.4506425,22.5846483 2.40808476,22.5821021 2.3657988,22.5770656 C2.16448779,22.5554143 1.77106657,22.5315723 1.60900449,22.403827 L1.60900449,1.57217792 L2.815735,1.57217792 L2.88302309,22.5103763 C2.75915519,22.5592775 2.62683672,22.5845048 2.49324142,22.5846905 Z M5.63141045,22.0108039 C5.48341164,21.9683833 5.18587082,21.8378498 5.04800451,21.8250183 C4.9511659,21.8145116 4.85380805,21.8092307 4.75637433,21.8091996 C4.63993773,21.8091996 4.1380869,21.9957248 4.02243641,22.0108039 L4.02243641,1.57217792 L5.63138134,1.57217792 L5.63138134,22.0108039 L5.63141045,22.0108039 Z M21.3188781,22.0108039 C21.200811,21.9950704 20.6697564,21.8078624 20.5548629,21.8078624 C20.4566241,21.8078624 20.358327,21.8137233 20.2648051,21.8249899 C20.1186697,21.8406095 19.8521087,21.9704887 19.7099041,22.0108039 L19.7099041,1.57217792 L21.3188781,1.57217792 L21.3188781,22.0108039 L21.3188781,22.0108039 Z M23.73231,22.4038555 C23.5808463,22.5277599 23.1522816,22.5547315 22.9454094,22.5772363 C22.904821,22.5819592 22.8635922,22.584406 22.8228292,22.584406 C22.688748,22.584406 22.6524398,22.4543277 22.5255795,22.4038555 L22.5255795,1.57217792 L23.73231,1.57217792 L23.73231,22.4038555 L23.73231,22.4038555 Z" id="形状"></path>
                    </g>
                </g>
            </g>
        </g>
    </g>
</svg>