<?xml version="1.0" encoding="UTF-8"?>
<svg width="48px" height="48px" viewBox="0 0 48 48" version="1.1" xmlns="http://www.w3.org/2000/svg" xmlns:xlink="http://www.w3.org/1999/xlink">
    <!-- Generator: Sketch 53.2 (72643) - https://sketchapp.com -->
    <title>device_switch@2x</title>
    <desc>Created with Sketch.</desc>
    <g id="icon" stroke="none" stroke-width="1" fill="none" fill-rule="evenodd">
        <g transform="translate(-248.000000, -147.000000)" id="device_switch">
            <g transform="translate(248.000000, 147.000000)">
                <g id="分组-9">
                    <circle id="椭圆形" fill="#F8BA37" cx="24" cy="24" r="24"></circle>
                    <g id="kaiguan" transform="translate(12.000000, 13.200000)" fill="#FFFFFF" fill-rule="nonzero">
                        <path d="M22.4,0 L1.6,0 C0.7176,0 0,0.7452 0,1.66153846 L0,19.9384615 C0,20.8548 0.7176,21.6 1.6,21.6 L22.4,21.6 C23.2824,21.6 24,20.8548 24,19.9384615 L24,1.66153846 C24,0.7452 23.2824,0 22.4,0 Z M1.6,19.9384615 L1.6,1.66153846 L22.4,1.66153846 L22.4016,19.9384615 L1.6,19.9384615 Z" id="形状"></path>
                        <path d="M19,3.6 L5,3.6 C4.2279,3.6 3.6,4.24584 3.6,5.04 L3.6,16.56 C3.6,17.35416 4.2279,18 5,18 L19,18 C19.7721,18 20.4,17.35416 20.4,16.56 L20.4,5.04 C20.4,4.24584 19.7721,3.6 19,3.6 Z M5,16.56 L5,5.04 L19,5.04 L19.0014,16.56 L5,16.56 Z" id="形状"></path>
                        <path d="M16,7.2 L8,7.2 C7.5581722,7.2 7.2,7.46862915 7.2,7.8 C7.2,8.13137085 7.5581722,8.4 8,8.4 L16,8.4 C16.4418278,8.4 16.8,8.13137085 16.8,7.8 C16.8,7.46862915 16.4418278,7.2 16,7.2 Z" id="路径"></path>
                    </g>
                </g>
            </g>
        </g>
    </g>
</svg>