<?xml version="1.0" encoding="UTF-8"?>
<svg width="48px" height="48px" viewBox="0 0 48 48" version="1.1" xmlns="http://www.w3.org/2000/svg" xmlns:xlink="http://www.w3.org/1999/xlink">
    <!-- Generator: Sketch 53.2 (72643) - https://sketchapp.com -->
    <title>device_helmet@2x</title>
    <desc>Created with Sketch.</desc>
    <g id="icon" stroke="none" stroke-width="1" fill="none" fill-rule="evenodd">
        <g transform="translate(-424.000000, -147.000000)" id="device_helmet">
            <g transform="translate(424.000000, 147.000000)">
                <g id="分组">
                    <path d="M0,24 C4.19664303e-15,37.254834 10.745166,48 24,48 C37.254834,48 48,37.254834 48,24 C48,10.745166 37.254834,-2.67841305e-15 24,-3.55271368e-15 C10.745166,-4.42701431e-15 4.19664303e-15,10.745166 0,24 Z" id="路径" fill="#FF4B54" fill-rule="nonzero"></path>
                    <g id="hongseanquanmao" transform="translate(9.000000, 12.000000)" fill="#FFFFFF" fill-rule="nonzero" stroke="#FF4B54" stroke-width="0.5">
                        <path d="M15.1898347,21 C6.60236858,21 0.0658043763,19.0005147 0,16.3525476 C0,14.9583119 1.29415198,14.1909418 2.79668437,13.9747813 C3.29021693,8.13844572 6.38302077,1.96706127 11.7131721,0.886258365 C12.8113407,0.405746929 13.9821715,0.106338425 15.1788672,0 C16.3300252,0.0518859436 17.4545633,0.358487409 18.4690842,0.897066415 C25.7514309,2.48584665 27.2429959,10.6242923 27.5829849,14.0504375 C28.7784304,14.3314462 30.1603215,14.9042717 29.9848433,16.3957797 C29.9848433,17.3360783 27.4733111,21 15.1788672,21 L15.1898347,21 Z M2.31411923,16.3417396 C3.22441255,17.1631498 7.20557502,18.8492023 15.1788672,18.8492023 C23.700529,18.8492023 26.7165611,17.0334534 27.5939523,16.2768914 C27.1992146,16.1573038 26.7959517,16.0669848 26.3875395,16.0066907 C25.882521,15.869874 25.5158587,15.4397139 25.4662787,14.9258878 C25.3346701,12.6453937 24.490181,5.45805457 19.1929319,3.39372107 L19.1929319,9.81369018 C19.1929319,10.4106011 18.7019051,10.894493 18.0961929,10.894493 C17.8053197,10.8944931 17.5263598,10.7806231 17.3206813,10.5779332 C17.1150029,10.3752434 16.9994539,10.1003369 16.9994539,9.81369018 L16.9994539,2.63715904 C16.4452257,2.37902753 15.8457103,2.22857428 15.2337042,2.19402988 C14.5013027,2.25711035 13.7814512,2.42081613 13.0950632,2.68039115 L13.1608676,9.73803397 C13.1608676,10.0246807 13.0453186,10.2995872 12.8396402,10.502277 C12.6339617,10.7049669 12.3550019,10.8188369 12.0641286,10.8188369 C11.7732554,10.8188369 11.4942955,10.7049669 11.288617,10.502277 C11.0829386,10.2995872 10.9673896,10.0246807 10.9673896,9.73803397 L10.9015853,3.39372107 C7.23847717,4.98250131 5.13273838,10.3000515 4.92435798,14.9799279 C4.92540454,15.5524047 4.47329543,16.0263831 3.89342332,16.0607308 C3.35332248,16.0890559 2.8207645,16.1983933 2.31411923,16.3849717 L2.31411923,16.3417396 Z" id="形状"></path>
                    </g>
                </g>
            </g>
        </g>
    </g>
</svg>