<?xml version="1.0" encoding="UTF-8"?>
<svg width="48px" height="48px" viewBox="0 0 48 48" version="1.1" xmlns="http://www.w3.org/2000/svg" xmlns:xlink="http://www.w3.org/1999/xlink">
    <!-- Generator: Sketch 53.2 (72643) - https://sketchapp.com -->
    <title>device_control@2x</title>
    <desc>Created with Sketch.</desc>
    <g id="icon" stroke="none" stroke-width="1" fill="none" fill-rule="evenodd">
        <g transform="translate(-776.000000, -235.000000)" id="device_control">
            <g transform="translate(776.000000, 235.000000)">
                <g id="分组-9-copy-14">
                    <circle id="椭圆形" fill="#70CCCA" cx="24" cy="24" r="24"></circle>
                    <g id="kongzhiqi" transform="translate(14.000000, 10.000000)" fill="#FFFFFF" fill-rule="nonzero">
                        <path d="M3.67510551,26.5 C3.27004222,26.5 3.00000003,26.24 3,25.85 L3,20.78 C3,20.39 3.27004218,20.13 3.67510551,20.13 C4.08016883,20.13 4.35021098,20.39 4.35021098,20.78 L4.35021098,25.85 C4.35021098,26.24 4.01265823,26.5 3.67510551,26.5 L3.67510551,26.5 Z M3.67510551,15.71 C3.27004222,15.71 3.00000003,15.45 3,15.06 L3,1.15000002 C3,0.76000002 3.27004218,0.50000003 3.67510551,0.5 C4.08016883,0.49999997 4.35021098,0.75999999 4.35021098,1.15000002 L4.35021098,15.06 C4.35021098,15.385 4.01265823,15.71 3.67510551,15.71 L3.67510551,15.71 Z M10.6751055,26.5 C10.2700422,26.5 10,26.24 10,25.85 L10,10.51 C10,10.12 10.2700422,9.86000002 10.6751055,9.85999999 C11.0801688,9.85999996 11.3502109,10.12 11.3502109,10.51 L11.3502109,25.85 C11.3502109,26.24 11.0801688,26.5 10.6751055,26.5 L10.6751055,26.5 Z M10.6751055,5.375 C10.2700422,5.375 10,5.11500001 10,4.72500001 L10,1.15000002 C10,0.76000002 10.2700422,0.50000003 10.6751055,0.5 C11.0801688,0.49999997 11.3502109,0.75999999 11.3502109,1.15000002 L11.3502109,4.72500001 C11.3502109,5.05000002 11.0801688,5.375 10.6751055,5.375 Z M17.6751055,26.5 C17.2700422,26.5 17,26.24 17,25.85 L17,20.78 C17,20.39 17.2700422,20.13 17.6751055,20.13 C18.0801688,20.13 18.3502109,20.39 18.3502109,20.78 L18.3502109,25.85 C18.3502109,26.24 18.0801688,26.5 17.6751055,26.5 L17.6751055,26.5 Z M17.6751055,15.71 C17.2700422,15.71 17,15.45 17,15.06 L17,1.15000002 C17,0.76000002 17.2700422,0.50000003 17.6751055,0.5 C18.0801688,0.49999997 18.3502109,0.75999999 18.3502109,1.15000002 L18.3502109,15.06 C18.3502109,15.385 18.0801688,15.71 17.6751055,15.71 L17.6751055,15.71 Z" id="形状"></path>
                        <path d="M3.47852761,21.5 C1.54601227,21.5 0,19.9719101 0,18.0617978 C0,16.1516854 1.54601227,14.6235955 3.47852761,14.6235955 C5.41104295,14.6235955 6.95705522,16.1516854 6.95705522,18.0617978 C6.95705522,19.9082397 5.41104295,21.5 3.47852761,21.5 Z M3.47852761,15.8333333 C2.25460124,15.8333333 1.28834357,16.7883895 1.28834354,17.9981274 C1.28834351,19.2078652 2.25460121,20.1629213 3.47852761,20.1629213 C4.70245401,20.1629213 5.66871165,19.2078652 5.66871165,17.9981274 C5.66871165,16.7883895 4.70245398,15.8333334 3.47852761,15.8333333 L3.47852761,15.8333333 Z M17.5214724,21.5 C15.5889571,21.5 14.0429448,19.9719101 14.0429448,18.0617978 C14.0429448,16.1516854 15.5889571,14.6235955 17.5214724,14.6235955 C19.4539877,14.6235955 21,16.1516854 21,18.0617978 C21,19.9082397 19.4539877,21.5 17.5214724,21.5 Z M17.5214724,15.8333333 C16.297546,15.8333333 15.3312883,16.7883895 15.3312883,17.9981274 C15.3312883,19.2078652 16.297546,20.1629213 17.5214724,20.1629213 C18.7453988,20.1629213 19.7116564,19.2078652 19.7116565,17.9981274 C19.7116565,16.7883895 18.7453988,15.8333334 17.5214724,15.8333333 Z M10.4355828,11.3764045 C8.50306749,11.3764045 6.95705522,9.84831461 6.95705522,7.93820225 C6.95705522,6.02808989 8.50306749,4.5 10.4355828,4.5 C12.3680982,4.5 13.9141104,6.02808989 13.9141104,7.93820225 C13.9785276,9.7846442 12.3680982,11.3764045 10.4355828,11.3764045 L10.4355828,11.3764045 Z M10.4355828,5.70973782 C9.21165646,5.70973782 8.24539879,6.664794 8.24539876,7.87453185 C8.24539873,9.08426969 9.21165643,10.0393258 10.4355828,10.0393258 C11.6595092,10.0393258 12.6257669,9.08426966 12.6257669,7.87453185 C12.690184,6.66479403 11.6595092,5.70973785 10.4355828,5.70973782 Z" id="形状"></path>
                    </g>
                </g>
            </g>
        </g>
    </g>
</svg>