<?xml version="1.0" encoding="UTF-8"?>
<svg width="48px" height="48px" viewBox="0 0 48 48" version="1.1" xmlns="http://www.w3.org/2000/svg" xmlns:xlink="http://www.w3.org/1999/xlink">
    <!-- Generator: Sketch 53.2 (72643) - https://sketchapp.com -->
    <title>device_park@2x</title>
    <desc>Created with Sketch.</desc>
    <g id="icon" stroke="none" stroke-width="1" fill="none" fill-rule="evenodd">
        <g transform="translate(-72.000000, -235.000000)" id="device_parking">
            <g transform="translate(72.000000, 235.000000)">
                <g id="分组-9-copy-6">
                    <circle id="椭圆形" fill="#D071D7" cx="24" cy="24" r="24"></circle>
                    <path d="M30.2889375,21.143375 C30.2889375,22.679375 29.8404375,23.8955625 28.945,24.7914375 C28.0480313,25.6880313 26.8005938,26.1349688 25.2016562,26.1349688 L22.418,26.1349688 L22.418,32.566375 L20.2100938,32.566375 L20.2100938,16.1519688 L25.2016562,16.1519688 C26.8005937,16.1519688 28.0480313,16.6006563 28.945,17.495875 C29.8404687,18.3924688 30.2889375,19.60775 30.2889375,21.143375 Z M28.081375,21.143375 C28.081375,19.92875 27.7929687,19.0962812 27.2172812,18.64775 C26.641625,18.2008125 25.77725,17.9762187 24.6255938,17.9762187 L22.4179688,17.9762187 L22.4179688,24.311125 L24.6255938,24.311125 C25.77725,24.311125 26.641625,24.0876875 27.2172812,23.6391562 C27.7929688,23.1922187 28.081375,22.3599687 28.081375,21.143375 Z M24,38 C16.28,38 10,31.72 10,24 C10,16.28 16.28,10 24,10 C31.72,10 38,16.28 38,24 C38,31.72 31.72,38 24,38 Z M24,12.009 C17.388,12.009 12.009,17.388 12.009,24 C12.009,30.611 17.388,35.991 24,35.991 C30.611,35.991 35.991,30.611 35.991,24 C35.991,17.388 30.611,12.009 24,12.009 Z" id="形状" stroke="#D071D7" stroke-width="0.2" fill="#FFFFFF" fill-rule="nonzero"></path>
                </g>
            </g>
        </g>
    </g>
</svg>