<?xml version="1.0" encoding="UTF-8"?>
<svg width="48px" height="48px" viewBox="0 0 48 48" version="1.1" xmlns="http://www.w3.org/2000/svg" xmlns:xlink="http://www.w3.org/1999/xlink">
    <!-- Generator: Sketch 53.2 (72643) - https://sketchapp.com -->
    <title>device_doorlock@2x</title>
    <desc>Created with Sketch.</desc>
    <g id="icon" stroke="none" stroke-width="1" fill="none" fill-rule="evenodd">
        <g transform="translate(-512.000000, -147.000000)" id="device_doorlock">
            <g transform="translate(512.000000, 147.000000)">
                <g id="分组-9-copy">
                    <circle id="椭圆形" fill="#5BC5ED" cx="24" cy="24" r="24"></circle>
                    <g id="zhinengmensuo" transform="translate(15.000000, 11.000000)" fill="#FFFFFF" fill-rule="nonzero">
                        <path d="M12.2728634,26 L1.72713657,26 C0.773707562,25.9988856 0.00106667526,25.1916704 0,24.1955772 L0,1.80442278 C0.00106667526,0.808329565 0.773707562,0.00111440703 1.72713657,0 L12.2728634,0 C13.2262924,0.00111440703 13.9989333,0.808329565 14,1.80442278 L14,19.0050813 L12.8709417,19.0050813 L12.8709417,1.80442278 C12.8705861,1.45948651 12.6030256,1.17995307 12.2728634,1.17958157 L1.72713657,1.17958157 C1.39697445,1.17995307 1.12941386,1.45948651 1.12905827,1.80442278 L1.12905827,24.1955772 C1.12941386,24.5405135 1.39697445,24.8200469 1.72713657,24.8204184 L12.2728634,24.8204184 C12.6030256,24.8200469 12.8705861,24.5405135 12.8709417,24.1955772 L12.8709417,21.4993908 L14,21.4993908 L14,24.1955772 C13.9989333,25.1916704 13.2262924,25.9988856 12.2728634,26 L12.2728634,26 Z" id="路径"></path>
                        <path d="M10.059345,12.2201516 L3.77817984,12.2201516 C2.79661419,12.2190304 2.0011963,11.473558 2,10.5536262 L2,4.66652536 C2.0011963,3.74659363 2.79661419,3.00112119 3.77817984,3 L10.059345,3 C11.0409107,3.00112119 11.8363286,3.74659363 11.8375249,4.66652536 L11.8375249,10.5532871 C11.8365279,11.4733513 11.0410518,12.21903 10.059345,12.2201516 L10.059345,12.2201516 Z M3.77817984,4.18698387 C3.49575759,4.18735746 3.26690848,4.40183681 3.26650986,4.66652536 L3.26650986,10.5532871 C3.26690848,10.8179756 3.49575759,11.032455 3.77817984,11.0328286 L10.059345,11.0328286 C10.3417673,11.032455 10.5706164,10.8179756 10.571015,10.5532871 L10.571015,4.66652536 C10.5706164,4.40183681 10.3417673,4.18735746 10.059345,4.18698387 L3.77817984,4.18698387 Z M22.2811652,23 L8.92853266,23 C7.97965978,22.9990654 7.21069509,22.2783851 7.20969785,21.3890933 L7.20969785,20.9312567 C7.21069509,20.0419649 7.97965978,19.3212846 8.92853266,19.32035 L22.2811652,19.32035 C23.2300381,19.3212846 23.9990028,20.0419649 24,20.9312567 L24,21.3890933 C23.9990028,22.2783851 23.2300381,22.9990654 22.2811652,23 L22.2811652,23 Z M8.92853266,20.5073339 C8.67880319,20.5075209 8.47640725,20.6972081 8.47620771,20.9312567 L8.47620771,21.3890933 C8.47640725,21.6231419 8.67880319,21.8128291 8.92853266,21.8130161 L22.2811652,21.8130161 C22.5308947,21.8128291 22.7332906,21.6231419 22.7334901,21.3890933 L22.7334901,20.9312567 C22.7332906,20.6972081 22.5308947,20.5075209 22.2811652,20.5073339 L8.92853266,20.5073339 Z M3.88275737,15.2686653 L3.17495929,15.2686653 C2.78541766,15.2682915 2.46973128,14.9724275 2.46933237,14.6073457 L2.46933237,13.9450087 C2.46973128,13.579927 2.78541766,13.284063 3.17495929,13.2836891 L3.88167179,13.2836891 C4.27121343,13.284063 4.5868998,13.579927 4.58729872,13.9450087 L4.58729872,14.6073457 C4.5869013,14.9720311 4.27187499,15.2677314 3.88275737,15.2686653 L3.88275737,15.2686653 Z M3.17495929,13.7923965 C3.08551575,13.7934924 3.01329165,13.8611815 3.01212231,13.9450087 L3.01212231,14.6073457 C3.01329165,14.691173 3.08551575,14.758862 3.17495929,14.7599579 L3.88167179,14.7599579 C3.97111534,14.758862 4.04333943,14.691173 4.04450878,14.6073457 L4.04450878,13.9450087 C4.04333943,13.8611815 3.97111534,13.7934924 3.88167179,13.7923965 L3.17495929,13.7923965 Z M7.29003076,15.2686653 L6.58368012,15.2686653 C6.19413848,15.2682915 5.87845211,14.9724275 5.87805319,14.6073457 L5.87805319,13.9450087 C5.87845211,13.579927 6.19413848,13.284063 6.58368012,13.2836891 L7.29039262,13.2836891 C7.67993425,13.284063 7.99562062,13.579927 7.99601954,13.9450087 L7.99601954,14.6073457 C7.99562033,14.9725598 7.6797137,15.2684784 7.29003076,15.2686653 L7.29003076,15.2686653 Z M6.58368012,13.7923965 C6.49423657,13.7934924 6.42201248,13.8611815 6.42084313,13.9450087 L6.42084313,14.6073457 C6.42201248,14.691173 6.49423657,14.758862 6.58368012,14.7599579 L7.29039262,14.7599579 C7.37983616,14.758862 7.45206025,14.691173 7.4532296,14.6073457 L7.4532296,13.9450087 C7.45206025,13.8611815 7.37983616,13.7934924 7.29039262,13.7923965 L6.58368012,13.7923965 Z M10.697666,15.2686653 L9.99131536,15.2686653 C9.60177373,15.2682915 9.28608736,14.9724275 9.28568844,14.6073457 L9.28568844,13.9450087 C9.28608736,13.579927 9.60177373,13.284063 9.99131536,13.2836891 L10.6980279,13.2836891 C11.0875695,13.284063 11.4032559,13.579927 11.4036548,13.9450087 L11.4036548,14.6073457 C11.4032556,14.9725598 11.0873489,15.2684784 10.697666,15.2686653 L10.697666,15.2686653 Z M9.9909535,13.7923965 C9.90150996,13.7934924 9.82928586,13.8611815 9.82811652,13.9450087 L9.82811652,14.6073457 C9.82928586,14.691173 9.90150996,14.758862 9.9909535,14.7599579 L10.697666,14.7599579 C10.7871095,14.758862 10.8593336,14.691173 10.860503,14.6073457 L10.860503,13.9450087 C10.8593336,13.8611815 10.7871095,13.7934924 10.697666,13.7923965 L9.9909535,13.7923965 Z M3.88275737,18.1082699 L3.17495929,18.1082699 C2.78541766,18.107896 2.46973128,17.812032 2.46933237,17.4469503 L2.46933237,16.7835959 C2.46973128,16.4185141 2.78541766,16.1226502 3.17495929,16.1222763 L3.88167179,16.1222763 C4.27121343,16.1226502 4.5868998,16.4185141 4.58729872,16.7835959 L4.58729872,17.4459329 C4.58749955,17.8110154 4.27229858,18.1073348 3.88275737,18.1082699 Z M3.17495929,16.6309837 C3.08551575,16.6320796 3.01329165,16.6997686 3.01212231,16.7835959 L3.01212231,17.4459329 C3.0127058,17.5301572 3.08509795,17.598456 3.17495929,17.5995625 L3.88167179,17.5995625 C3.97111534,17.5984666 4.04333943,17.5307776 4.04450878,17.4469503 L4.04450878,16.7835959 C4.04333943,16.6997686 3.97111534,16.6320796 3.88167179,16.6309837 L3.17495929,16.6309837 Z M7.29003076,18.1082699 L6.58368012,18.1082699 C6.19413848,18.107896 5.87845211,17.812032 5.87805319,17.4469503 L5.87805319,16.7835959 C5.87845211,16.4185141 6.19413848,16.1226502 6.58368012,16.1222763 L7.29039262,16.1222763 C7.67993425,16.1226502 7.99562062,16.4185141 7.99601954,16.7835959 L7.99601954,17.4459329 C7.99611554,17.6215056 7.92178871,17.7899231 7.78939013,17.9141354 C7.65699154,18.0383477 7.4773666,18.10818 7.29003076,18.1082699 Z M6.58368012,16.6309837 C6.49423657,16.6320796 6.42201248,16.6997686 6.42084313,16.7835959 L6.42084313,17.4459329 C6.42201248,17.5297601 6.49423657,17.5974492 6.58368012,17.5985451 L7.29039262,17.5985451 C7.37983616,17.5974492 7.45206025,17.5297601 7.4532296,17.4459329 L7.4532296,16.7835959 C7.45206025,16.6997686 7.37983616,16.6320796 7.29039262,16.6309837 L6.58368012,16.6309837 Z M10.697666,18.1082699 L9.99131536,18.1082699 C9.60177373,18.107896 9.28608736,17.812032 9.28568844,17.4469503 L9.28568844,16.7835959 C9.28608736,16.4185141 9.60177373,16.1226502 9.99131536,16.1222763 L10.6980279,16.1222763 C11.0875695,16.1226502 11.4032559,16.4185141 11.4036548,16.7835959 L11.4036548,17.4459329 C11.4037508,17.6215056 11.329424,17.7899231 11.1970254,17.9141354 C11.0646268,18.0383477 10.8850018,18.10818 10.697666,18.1082699 Z M9.9909535,16.6320011 C9.90150996,16.633097 9.82928586,16.700786 9.82811652,16.7846133 L9.82811652,17.4469503 C9.82928586,17.5307776 9.90150996,17.5984666 9.9909535,17.5995625 L10.697666,17.5995625 C10.7871095,17.5984666 10.8593336,17.5307776 10.860503,17.4469503 L10.860503,16.7835959 C10.8593336,16.6997686 10.7871095,16.6320796 10.697666,16.6309837 L9.9909535,16.6320011 Z" id="形状"></path>
                    </g>
                </g>
            </g>
        </g>
    </g>
</svg>