<?xml version="1.0" encoding="UTF-8"?>
<svg width="48px" height="48px" viewBox="0 0 48 48" version="1.1" xmlns="http://www.w3.org/2000/svg" xmlns:xlink="http://www.w3.org/1999/xlink">
    <!-- Generator: Sketch 53.2 (72643) - https://sketchapp.com -->
    <title>device_ashcan@2x</title>
    <desc>Created with Sketch.</desc>
    <g id="icon" stroke="none" stroke-width="1" fill="none" fill-rule="evenodd">
        <g transform="translate(-600.000000, -235.000000)" id="device_ashcan">
            <g transform="translate(600.000000, 235.000000)">
                <g id="分组-9-copy-12">
                    <circle id="椭圆形" fill="#93C07C" cx="24" cy="24" r="24"></circle>
                    <g id="lajitong" transform="translate(12.000000, 12.000000)" fill="#FFFFFF" fill-rule="nonzero">
                        <path d="M7.63652274,19.8279263 L7.63652274,8.13605833 C7.63712734,7.96301534 7.7065077,7.7973172 7.82936813,7.67549396 C7.95222855,7.55367071 8.11848091,7.48572533 8.29147297,7.48663714 C8.65266716,7.48663714 9.16473992,7.77704732 9.16473992,8.13605833 L9.16473992,19.8279263 C9.16473992,20.1857939 8.65381018,20.4773474 8.29147297,20.4773474 C7.93145994,20.4786138 7.63841202,20.1880397 7.63652274,19.8279263 L7.63652274,19.8279263 Z M11.1273045,19.8279263 L11.1273045,8.13605833 C11.1279091,7.96301534 11.1972895,7.79731721 11.3201499,7.67549396 C11.4430103,7.55367072 11.6092627,7.48572533 11.7822548,7.48663714 C12.1434489,7.48663714 12.6555217,7.77704732 12.6555217,8.13605833 L12.6555217,19.8279263 C12.6555217,20.1857939 12.144592,20.4773474 11.7822548,20.4773474 C11.4222417,20.4786138 11.1291938,20.1880397 11.1273045,19.8279263 L11.1273045,19.8279263 Z M14.836403,19.8279263 L14.836403,8.13605833 C14.836403,7.77704732 15.1290161,7.48663714 15.4913533,7.48663714 C15.8536905,7.48663714 16.3646202,7.77704732 16.3646202,8.13605833 L16.3646202,19.8279263 C16.3646202,20.1857939 15.8536905,20.4773474 15.4913533,20.4773474 C15.1290161,20.4773474 14.8364031,20.1857939 14.836403,19.8279263 Z M18.3271849,21.5783907 L19.4496301,5.50407318 L4.6498126,5.50407318 L5.67281512,21.1370588 C5.74368233,21.651565 5.84312504,22.4576247 6.98271556,22.4576247 L17.6745207,22.4576247 C18.0277137,22.4587681 18.2528886,22.2529656 18.3271849,21.5783907 Z M17.6836648,24 L6.54608207,24 C4.97100109,24 4.19374779,22.8429327 4.14574097,22.0185794 L3.1193094,5.50407318 L0.654959185,5.50407318 C0.48055486,5.50377164 0.313447393,5.43402324 0.190554421,5.31023691 C0.0676614479,5.18645058 -0.000902805759,5.01881406 8.97879293e-06,4.84436188 C8.97879293e-06,4.47963413 0.292621999,3.96284122 0.654959185,3.96284122 L6.76439882,3.96284122 L6.76439882,1.54123197 C6.74839653,0.471059031 7.67195635,0 8.5086467,0 L15.4902103,0 C15.886838,0.029727037 16.2857519,-0.00686007284 16.8001107,0.659711304 C17.2527464,1.17879091 17.2218849,1.43604401 17.2367442,1.76075462 L17.2367442,3.96284122 L23.3461838,3.96284122 C23.707378,3.96284122 23.999991,4.47849078 23.999991,4.84436188 C24.0009028,5.01872245 23.9325314,5.18630372 23.8099183,5.31023853 C23.6873051,5.43417334 23.5204944,5.5043092 23.3461838,5.50521653 L20.9172672,5.50521653 L19.7902499,22.5125054 C19.7673895,22.8692297 19.155874,24 17.6836648,24 Z M15.0604349,1.54123197 L9.05501004,1.54123197 C8.48235724,1.54123197 8.29147297,1.88766615 8.29147297,2.38959554 L8.29147297,3.96284122 L15.70967,3.96284122 L15.70967,2.3735887 C15.70967,1.85107906 15.3439037,1.54123197 15.0604349,1.54123197 Z" id="形状"></path>
                    </g>
                </g>
            </g>
        </g>
    </g>
</svg>