<?xml version="1.0" encoding="UTF-8"?>
<svg width="48px" height="48px" viewBox="0 0 48 48" version="1.1" xmlns="http://www.w3.org/2000/svg" xmlns:xlink="http://www.w3.org/1999/xlink">
    <!-- Generator: Sketch 53.2 (72643) - https://sketchapp.com -->
    <title>device_elevator@2x</title>
    <desc>Created with Sketch.</desc>
    <g id="icon" stroke="none" stroke-width="1" fill="none" fill-rule="evenodd">
        <g transform="translate(-248.000000, -235.000000)" id="device_elevator">
            <g transform="translate(248.000000, 235.000000)">
                <g id="分组-9-copy-8">
                    <circle id="椭圆形" fill="#AE88DF" cx="24" cy="24" r="24"></circle>
                    <g id="dianti" transform="translate(13.000000, 12.000000)" fill="#FFFFFF" fill-rule="nonzero">
                        <path d="M21.2950371,24 L0.704962869,24 C0.318092999,24 0,23.6867725 0,23.3058201 L0,0.694179886 C0,0.313227507 0.318092999,0 0.704962869,0 L21.2950371,0 C21.681907,0 22,0.313227507 22,0.694179886 L22,23.3058201 C22,23.6867725 21.6905041,24 21.2950371,24 Z M1.40992574,22.6116402 L20.5900743,22.6116402 L20.5900743,1.3883598 L1.40992574,1.3883598 L1.40992574,22.6116402 L1.40992574,22.6116402 Z" id="形状" stroke="#FFFFFF" stroke-width="0.2"></path>
                        <path d="M11.2467191,24 C10.8333333,24 10.4934383,23.6867725 10.4934383,23.3058201 L10.4934383,21.4095238 C10.4934383,21.0285714 10.8333333,20.7153439 11.2467191,20.7153439 C11.660105,20.7153439 12,21.0285714 12,21.4095238 L12,23.3058201 C12,23.6867725 11.660105,24 11.2467191,24 Z M11.2467191,18.6328042 C10.8333333,18.6328042 10.4934383,18.3195767 10.4934383,17.9386243 L10.4934383,0.694179886 C10.4934383,0.313227507 10.8333333,0 11.2467191,0 C11.660105,0 12,0.313227507 12,0.694179886 L12,17.9386243 C12,18.3195767 11.660105,18.6328042 11.2467191,18.6328042 Z M5.75328086,15.0518519 C5.33989503,15.0518519 5.00000003,14.7386244 5,14.357672 L5,7.22962962 C5,6.84867724 5.33989501,6.53544973 5.75328086,6.53544973 C6.16666668,6.53544973 6.50656169,6.84867724 6.50656169,7.22962962 L6.50656169,14.3492063 C6.50656169,14.7386243 6.17585303,15.0518518 5.75328086,15.0518519 Z" id="形状"></path>
                        <path d="M8.32786885,10 C8.15573769,10 7.98360656,9.93442623 7.85245901,9.8032787 L5.19672131,7.14754097 C4.93442623,6.88524589 4.93442623,6.45901638 5.19672131,6.19672131 C5.45901638,5.93442623 5.88524589,5.93442623 6.14754097,6.19672131 L8.80327869,8.85245901 C9.06557377,9.11475409 9.06557377,9.5409836 8.80327869,9.8032787 C8.67213114,9.93442625 8.50000001,10 8.32786885,10 L8.32786885,10 Z" id="路径"></path>
                        <path d="M2.67808624,9.88457711 C2.50442999,9.88457711 2.33077378,9.82089551 2.19846426,9.69353234 C1.93384525,9.43880598 1.93384525,9.02487563 2.19846426,8.77014925 L4.87773182,6.19104479 C5.14235083,5.93631843 5.57235674,5.93631843 5.83697578,6.19104479 C6.10159479,6.44577115 6.10159479,6.8597015 5.83697578,7.11442786 L3.15770819,9.69353234 C3.02539867,9.82089553 2.85174245,9.88457713 2.67808624,9.88457711 L2.67808624,9.88457711 Z M16.3219137,15 C15.9497933,15 15.6438275,14.7054726 15.6438275,14.3472637 L15.6438275,7.65273631 C15.6438275,7.29452736 15.9497933,7 16.3219137,7 C16.6940342,7 17,7.29452736 17,7.65273631 L17,14.3472637 C17,14.7134328 16.6940343,15 16.3219137,15 Z" id="形状"></path>
                        <path d="M16.3278689,15 C16.1557377,15 15.9836066,14.9344262 15.852459,14.8032787 L13.1967213,12.147541 C12.9344262,11.8852459 12.9344262,11.4590164 13.1967213,11.1967213 C13.4590164,10.9344262 13.8852459,10.9344262 14.147541,11.1967213 L16.8032787,13.852459 C17.0655738,14.1147541 17.0655738,14.5409836 16.8032787,14.8032787 C16.6721311,14.9344262 16.5,15 16.3278689,15 Z" id="路径"></path>
                        <path d="M16.6721311,15 C16.5,15 16.3278689,14.9344262 16.1967213,14.8032787 C15.9344262,14.5409836 15.9344262,14.1147541 16.1967213,13.852459 L18.852459,11.1967213 C19.1147541,10.9344262 19.5409836,10.9344262 19.8032787,11.1967213 C20.0655738,11.4590164 20.0655738,11.8852459 19.8032787,12.147541 L17.147541,14.8032787 C17.0163934,14.9344262 16.8442623,15 16.6721311,15 Z" id="路径"></path>
                    </g>
                </g>
            </g>
        </g>
    </g>
</svg>