<?xml version="1.0" encoding="UTF-8"?>
<svg width="48px" height="48px" viewBox="0 0 48 48" version="1.1" xmlns="http://www.w3.org/2000/svg" xmlns:xlink="http://www.w3.org/1999/xlink">
    <!-- Generator: Sketch 53.2 (72643) - https://sketchapp.com -->
    <title>device_temperature@2x</title>
    <desc>Created with Sketch.</desc>
    <g id="icon" stroke="none" stroke-width="1" fill="none" fill-rule="evenodd">
        <g transform="translate(-688.000000, -147.000000)" id="device_temperature">
            <g transform="translate(688.000000, 147.000000)">
                <g id="分组-9-copy-3">
                    <circle id="椭圆形" fill="#F8BA37" cx="24" cy="24" r="24"></circle>
                    <g id="wengan" transform="translate(16.000000, 11.000000)" fill="#FFFFFF" fill-rule="nonzero">
                        <path d="M11.2723292,14.6714915 L11.2723292,4.25162817 C11.2723292,1.90351877 9.34777456,1.43780232e-16 6.97371606,0 C4.59965756,-1.43780232e-16 2.67510289,1.90351877 2.67510289,4.25162817 L2.67510289,14.6714915 C0.10406704,16.6623466 -0.725973134,20.1511865 0.677676182,23.0671116 C2.0813255,25.9830368 5.34276811,27.5451647 8.52608254,26.8262502 C11.709397,26.1073357 13.9620941,23.2999035 13.9470219,20.0703844 C13.9452959,17.9590047 12.9582472,15.9666374 11.2723292,14.6714915 Z M6.97371605,25.0778576 C4.75415303,25.0794993 2.79526225,23.6435623 2.15113637,21.5427343 C1.50701048,19.4419063 2.32957647,17.1716998 4.17620591,15.9537286 L4.61289042,15.6702867 L4.61289042,4.25162817 C4.61280079,3.41734635 5.06275201,2.64640023 5.79323082,2.22923373 C6.52370962,1.81206722 7.4237225,1.81206722 8.15420131,2.22923373 C8.88468011,2.64640023 9.33463134,3.41734635 9.3345417,4.25162817 L9.3345417,15.6702867 L9.77122621,15.9537286 C11.6077477,17.1646538 12.4328959,19.4173715 11.8067085,21.5107508 C11.1805211,23.6041301 9.2489722,25.0501715 7.04194802,25.0778576 L6.97371605,25.0778576 Z" id="形状"></path>
                        <path d="M16.9905213,7.32358169 L13.0094787,7.32358169 C12.451959,7.32358169 12,7.76754514 12,8.3152018 C12,8.86285846 12.451959,9.3068219 13.0094787,9.3068219 L16.9905213,9.3068219 C17.548041,9.3068219 18,8.86285846 18,8.3152018 C18,7.76754514 17.548041,7.32358169 16.9905213,7.32358169 L16.9905213,7.32358169 Z M16.9905213,10.0167598 C17.548041,10.0167598 18,10.4607232 18,11.0083799 C18,11.5560366 17.548041,12 16.9905213,12 L13.0094787,12 C12.451959,12 12,11.5560366 12,11.0083799 C12,10.4607232 12.451959,10.0167598 13.0094787,10.0167598 L16.9905213,10.0167598 Z M13.2101168,6.61364382 C12.6750115,6.61364382 12.241223,6.18459673 12.241223,5.65534033 C12.241223,5.12608392 12.6750115,4.69703683 13.2101168,4.69703683 L17.0311062,4.69703683 C17.5662115,4.69703683 18,5.12608392 18,5.65534033 C18,6.18459673 17.5662115,6.61364382 17.0311062,6.61364382 L13.2101168,6.61364382 Z" id="形状"></path>
                    </g>
                </g>
            </g>
        </g>
    </g>
</svg>