<?xml version="1.0" encoding="UTF-8"?>
<svg width="48px" height="48px" viewBox="0 0 48 48" version="1.1" xmlns="http://www.w3.org/2000/svg" xmlns:xlink="http://www.w3.org/1999/xlink">
    <!-- Generator: Sketch 53.2 (72643) - https://sketchapp.com -->
    <title>device_hydraulic@2x</title>
    <desc>Created with Sketch.</desc>
    <g id="icon" stroke="none" stroke-width="1" fill="none" fill-rule="evenodd">
        <g transform="translate(-688.000000, -235.000000)" id="device_hydraulic">
            <g transform="translate(688.000000, 235.000000)">
                <g id="分组-9-copy-13">
                    <circle id="椭圆形" fill="#5F92E4" cx="24" cy="24" r="24"></circle>
                    <g id="shuiya" transform="translate(14.000000, 13.000000)" fill="#FFFFFF" fill-rule="nonzero" stroke="#5F92E4" stroke-width="0.6">
                        <path d="M10.513,8.067 L14.05,4.53 C14.2943899,4.24462384 14.6781184,4.12031806 15.043419,4.20818987 C15.4087195,4.29606167 15.6939383,4.58128045 15.7818101,4.94658103 C15.8696819,5.3118816 15.7453762,5.69561012 15.46,5.94 L11.93,9.47 C12.0945708,10.0719043 11.9690777,10.7161245 11.5906131,11.2122464 C11.2121486,11.7083683 10.623997,11.9996513 10,12 C9.22323449,12.0001294 8.5166496,11.5504917 8.18777348,10.8467835 C7.85889736,10.1430754 7.96722125,9.31259227 8.46559914,8.71678681 C8.96397703,8.12098134 9.76225611,7.86763027 10.513,8.067 L10.513,8.067 Z M19,16 L17,16 C16.4477153,16 16,15.5522847 16,15 C16,14.4477153 16.4477153,14 17,14 L19,14 C19.5522847,14 20,14.4477153 20,15 C20,15.5522847 19.5522847,16 19,16 Z M13,16 L1,16 C0.44771525,16 0,15.5522847 0,15 C0,14.4477153 0.44771525,14 1,14 L13,14 C13.5522847,14 14,14.4477153 14,15 C14,15.5522847 13.5522847,16 13,16 Z M19,20 L6,20 C5.44771525,20 5,19.5522847 5,19 C5,18.4477153 5.44771525,18 6,18 L19,18 C19.5522847,18 20,18.4477153 20,19 C20,19.5522847 19.5522847,20 19,20 Z M3,20 L1,20 C0.44771525,20 0,19.5522847 0,19 C0,18.4477153 0.44771525,18 1,18 L3,18 C3.55228475,18 4,18.4477153 4,19 C4,19.5522847 3.55228475,20 3,20 Z M5.086,3.686 L5.41,4.01 C5.69011972,4.29570031 5.77297554,4.72087121 5.62063197,5.09084846 C5.4682884,5.4608257 5.11007517,5.70437994 4.71,5.71 C4.44419702,5.71153676 4.18871883,5.60718651 4,5.42 L3.678,5.098 C2.79781328,6.22943054 2.23949358,7.57755149 2.062,9 L3,9 C3.55228475,9 4,9.44771525 4,10 C4,10.5522847 3.55228475,11 3,11 L1,11 C0.44771525,11 0,10.5522847 0,10 C0,4.477 4.477,0 10,0 C15.523,0 20,4.477 20,10 C20,10.5522847 19.5522847,11 19,11 L17,11 C16.4477153,11 16,10.5522847 16,10 C16,9.44771525 16.4477153,9 17,9 L17.938,9 C17.4801426,5.37476905 14.6252309,2.5198574 11,2.062 L11,3 C11,3.55228475 10.5522847,4 10,4 C9.44771525,4 9,3.55228475 9,3 L9,2.062 C7.57256165,2.23973756 6.21996334,2.80095873 5.086,3.686 Z" id="形状"></path>
                    </g>
                </g>
            </g>
        </g>
    </g>
</svg>