<?xml version="1.0" encoding="UTF-8"?>
<svg width="48px" height="48px" viewBox="0 0 48 48" version="1.1" xmlns="http://www.w3.org/2000/svg" xmlns:xlink="http://www.w3.org/1999/xlink">
    <!-- Generator: Sketch 53.2 (72643) - https://sketchapp.com -->
    <title>device_fire@2x</title>
    <desc>Created with Sketch.</desc>
    <g id="icon" stroke="none" stroke-width="1" fill="none" fill-rule="evenodd">
        <g transform="translate(-424.000000, -235.000000)" id="device_fire">
            <g transform="translate(424.000000, 235.000000)">
                <g id="分组-9-copy-10">
                    <circle id="椭圆形" fill="#FF4B54" cx="24" cy="24" r="24"></circle>
                    <g id="jingwuicon_svg-" transform="translate(15.000000, 10.000000)" fill="#FFFFFF" fill-rule="nonzero">
                        <path d="M17.1501714,26.3011236 L15.2006015,26.3011236 L15.2006015,18.2157305 L16.8983703,18.2157305 C17.370284,18.2105581 17.7501158,17.8266918 17.7500874,17.3549665 L17.7500874,12.9259329 C17.7495049,12.7009034 17.6593822,12.4853501 17.4995993,12.326821 C17.3398164,12.1682919 17.1235013,12.0798121 16.8983703,12.0808992 L15.2006015,12.0808992 L15.2006015,9.58166329 C15.289161,9.56416278 15.3722547,9.52576312 15.4429601,9.46966329 L16.5285375,9.46966329 C16.9978849,9.46966329 17.3783661,9.08935686 17.3783661,8.6202251 C17.3783661,8.15109335 16.9978849,7.77078692 16.5285375,7.77078692 L15.7064069,7.77078692 C15.245703,5.61693814 13.7789346,3.81489045 11.7628873,2.92584319 C11.7650906,2.90067465 11.7698118,2.87676454 11.7698118,2.85096679 L11.7698118,0.849438739 C11.7666953,0.379024116 11.3840143,-0.000528993408 10.9133734,5.53437698e-07 L7.08631181,5.53437698e-07 C6.61572277,-0.000528018788 6.23313229,0.379074819 6.23018815,0.849438739 L6.23018815,2.85222522 C6.23018815,2.87802297 6.23459467,2.90382072 6.23711268,2.92898926 C4.2197159,3.81461532 2.75204209,5.61660448 2.29359306,7.77078692 L1.47146254,7.77078692 C1.00211515,7.77078692 0.621633909,8.15109335 0.621633909,8.6202251 C0.621633909,9.08935686 1.00211515,9.46966329 1.47146254,9.46966329 L2.55703994,9.46966329 C2.62774533,9.52576312 2.71083896,9.56416278 2.79939848,9.58166329 L2.79939848,12.0808992 L1.10162971,12.0808992 C0.876498682,12.0798121 0.660183633,12.1682919 0.500400715,12.326821 C0.340617798,12.4853501 0.250495139,12.7009034 0.249912569,12.9259329 L0.249912569,17.3549665 C0.249884198,17.8266918 0.629715993,18.2105581 1.10162971,18.2157305 L2.79939848,18.2157305 L2.79939848,26.3011236 L0.849828635,26.3011236 C0.38048124,26.3011236 0,26.6814301 0,27.1505618 C0,27.6196936 0.38048124,28 0.849828635,28 L17.1501714,28 C17.6195188,28 18,27.6196936 18,27.1505618 C18,26.6814301 17.6195188,26.3011236 17.1501714,26.3011236 Z M16.0504302,13.7797756 L16.0504302,16.5168542 L15.2006015,16.5168542 L15.2006015,13.7797756 L16.0504302,13.7797756 Z M7.92984542,1.69887692 L10.0701546,1.69887692 L10.0701546,2.43316904 C9.36098143,2.32291919 8.63901857,2.32291919 7.92984542,2.43316904 L7.92984542,1.69887692 Z M5.48296845,5.43105663 C6.79417917,4.20917529 8.6460513,3.75538769 10.3739829,4.23254965 C12.1019144,4.70971162 13.4580734,6.04938524 13.9557599,7.77078692 L4.04424005,7.77078692 C4.30421295,6.87558032 4.80129883,6.06719503 5.48296845,5.43105663 L5.48296845,5.43105663 Z M1.94956984,16.5168542 L1.94956984,13.7797756 L2.79939848,13.7797756 L2.79939848,16.5168542 L1.94956984,16.5168542 Z M4.49905575,26.3011236 L4.49905575,9.46966329 L13.5009443,9.46966329 L13.5009443,26.3011236 L4.49905575,26.3011236 Z" id="形状"></path>
                        <path d="M7.31325301,11 C6.86410578,11 6.5,11.3943984 6.5,11.8809135 L6.5,24.1190865 C6.5,24.6056016 6.86410578,25 7.31325301,25 C7.76240025,25 8.12650602,24.6056016 8.12650602,24.1190865 L8.12650602,11.8809135 C8.12650602,11.3943984 7.76240025,11 7.31325301,11 Z M10.686747,11 C10.2375998,11 9.87349398,11.3943984 9.87349398,11.8809135 L9.87349398,24.1190865 C9.87349398,24.6056016 10.2375998,25 10.686747,25 C11.1358942,25 11.5,24.6056016 11.5,24.1190865 L11.5,11.8809135 C11.5,11.3943984 11.1358942,11 10.686747,11 L10.686747,11 Z" id="形状"></path>
                    </g>
                </g>
            </g>
        </g>
    </g>
</svg>