<?xml version="1.0" encoding="UTF-8"?>
<svg width="48px" height="48px" viewBox="0 0 48 48" version="1.1" xmlns="http://www.w3.org/2000/svg" xmlns:xlink="http://www.w3.org/1999/xlink">
    <!-- Generator: Sketch 53.2 (72643) - https://sketchapp.com -->
    <title>device_electricity@2x</title>
    <desc>Created with Sketch.</desc>
    <g id="icon" stroke="none" stroke-width="1" fill="none" fill-rule="evenodd">
        <g transform="translate(-160.000000, -235.000000)" id="device_electricity">
            <g transform="translate(160.000000, 235.000000)">
                <g id="分组-9-copy-7">
                    <circle id="椭圆形" fill="#5BC5ED" cx="24" cy="24" r="24"></circle>
                    <g id="elec_fire" transform="translate(12.000000, 12.000000)" fill="#FFFFFF" fill-rule="nonzero">
                        <path d="M14.4332719,16.3876143 L12.6816405,16.3876143 L13.4616639,13.3416823 C13.4616639,13.3416823 13.5437716,13.0523188 13.4616639,12.9457111 C13.3795561,12.8391035 13.1058637,13.1436967 13.1058637,13.1436967 L9.42470067,17.1643269 C9.42470067,17.1643269 9.16469287,17.4536905 9.24680059,17.5602981 C9.32890832,17.6669057 9.42470067,17.7582837 9.50680839,17.7582837 L11.2858091,17.7582837 L10.6700012,20.8042157 C10.6700012,20.8042157 10.5878935,21.0935792 10.7521089,21.2001868 C10.9163244,21.3067945 11.0121167,21.1088089 11.107909,21.0022013 L14.6932797,16.9206524 C14.7417955,16.8689438 14.7692308,16.7974268 14.7692308,16.7226668 C14.7692308,16.6479068 14.7417955,16.5763898 14.6932797,16.5246812 C14.5974874,16.2962363 14.4332719,16.3876143 14.4332719,16.3876143 L14.4332719,16.3876143 Z M19.3961882,3.6923123 L4.68622418,3.6923123 C4.14588236,3.70032829 3.70747937,4.16855812 3.69230769,4.7538501 L3.69230769,10.0153853 C3.70717192,10.5948542 4.13722018,11.0608175 4.67202537,11.0769231 L19.3109954,11.0769231 C19.8513372,11.0689071 20.2897402,10.6006773 20.3049118,10.0153853 L20.3049118,4.7538501 C20.3247435,4.47966255 20.2378319,4.20898463 20.0652166,4.00734166 C19.8926012,3.80569869 19.6500169,3.6914716 19.3961882,3.6923123 Z M19.3846154,9.94428274 C19.3778273,10.0568656 19.294259,10.1465604 19.1893659,10.1538462 L4.81063413,10.1538462 C4.70574105,10.1465604 4.6221727,10.0568656 4.61538462,9.94428274 L4.61538462,4.82494802 C4.6221727,4.71236515 4.70574105,4.62267034 4.81063413,4.61538462 L19.1754195,4.61538462 C19.2803126,4.62267034 19.3638809,4.71236515 19.370669,4.82494802 L19.3846154,9.94428274 Z" id="形状" stroke="#FFFFFF" stroke-width="0.3"></path>
                        <path d="M19.7097301,2.05512487e-08 L4.29026995,2.05512487e-08 C3.14205903,-0.000112288908 2.04172702,0.460095544 1.23547698,1.27765043 C0.429226939,2.09520532 -0.0156387452,3.2018612 0.000420154252,4.35000002 L0.000420154252,19.77 C0.0332311138,22.1158371 1.94428555,24.0002295 4.29026995,24 L19.7097301,24 C22.0557144,24.0002295 23.9667689,22.1158371 23.9995798,19.77 L23.9995798,4.35000002 C24.0156387,3.2018612 23.5707731,2.09520532 22.764523,1.27765043 C21.958273,0.460095544 20.857941,-0.000112288908 19.7097301,2.05512487e-08 Z M22.4996324,19.77 C22.4749909,21.2908457 21.2306988,22.5084215 19.7097301,22.5 L4.29026995,22.5 C2.76930124,22.5084215 1.52500906,21.2908457 1.50036763,19.77 L1.50036763,4.35000002 C1.50433501,3.6140209 1.80050176,2.90976288 2.32371228,2.39216016 C2.8469228,1.87455744 3.55431672,1.586011 4.29026995,1.59000002 L19.7097301,1.59000002 C20.4456833,1.586011 21.1530772,1.87455744 21.6762877,2.39216016 C22.1994982,2.90976288 22.495665,3.6140209 22.4996324,4.35000002 L22.4996324,19.77 Z" id="形状"></path>
                    </g>
                </g>
            </g>
        </g>
    </g>
</svg>