<?xml version="1.0" encoding="UTF-8"?>
<svg width="48px" height="48px" viewBox="0 0 48 48" version="1.1" xmlns="http://www.w3.org/2000/svg" xmlns:xlink="http://www.w3.org/1999/xlink">
    <!-- Generator: Sketch 53.2 (72643) - https://sketchapp.com -->
    <title>device_camera@2x</title>
    <desc>Created with Sketch.</desc>
    <g id="icon" stroke="none" stroke-width="1" fill="none" fill-rule="evenodd">
        <g transform="translate(-512.000000, -235.000000)" id="device_camera">
            <g transform="translate(512.000000, 235.000000)">
                <g id="分组-9-copy-11">
                    <circle id="椭圆形" fill="#5F92E4" cx="24" cy="24" r="24"></circle>
                    <g id="shexiangtou" transform="translate(13.000000, 10.000000)" fill="#FFFFFF" fill-rule="nonzero">
                        <path d="M10.9980438,22 C4.93366534,22 3.0963787e-08,17.0668735 0,11 C-3.0963787e-08,4.93312651 4.9336653,0 10.9980438,0 C17.0624222,0 22,4.93312651 22,11 C22,17.0668735 17.0624222,22 10.9980438,22 Z M10.9980438,1.48638401 C8.47056733,1.48638401 6.09567849,2.47983455 4.30375245,4.28093761 C2.51573893,6.07824888 1.53370087,8.46708031 1.53370087,11 C1.53370087,16.2440538 5.7787658,20.513616 10.9980438,20.513616 C16.2173217,20.513616 20.4662992,16.2478456 20.4662991,11 C20.4623866,5.75215444 16.2173217,1.48638401 10.9980438,1.48638401 Z" id="形状"></path>
                        <path d="M10.9961539,26.5833333 C8.16153849,26.5833333 5.40384619,26.2310444 3.42307694,25.6201604 C0.592307705,24.7469336 3.04387019e-08,23.6001208 0,22.7943536 C0,22.2284427 0.296153837,21.3964412 1.71538461,20.650638 C1.81923078,20.6019172 1.93076923,20.575683 2.05,20.575683 C2.3269231,20.575683 2.58076924,20.7218454 2.71538464,20.9617017 C2.91153848,21.3139906 2.7846154,21.7487301 2.43076923,21.9473611 C1.77307691,22.2959023 1.52307691,22.6144614 1.51153848,22.7793626 L1.51153848,22.8168401 C1.59615387,23.7312922 5.41923079,25.1142136 11,25.1142136 C14.3346154,25.1142136 16.6038462,24.6682308 17.9153846,24.2934554 C19.4846154,23.8474726 20.4461539,23.2928049 20.4923077,22.8168401 L20.4961539,22.7906059 L20.4923077,22.7643716 C20.4692308,22.5919749 20.2,22.2734157 19.5346154,21.9248746 C19.2115385,21.7187481 19.0961539,21.2952518 19.2769231,20.9617017 C19.4076923,20.7180976 19.6653846,20.5681875 19.9461539,20.5681875 C20.0461538,20.5681875 20.1423077,20.5869263 20.2346154,20.6244038 C21.6923077,21.3777024 22,22.2209472 22,22.7943536 C22,23.6001208 21.4038462,24.7469337 18.5730769,25.6201604 C16.5923077,26.2347922 13.8307693,26.5833333 10.9961539,26.5833333 L10.9961539,26.5833333 Z M10.9961539,16.3819458 C9.63076925,16.3819458 8.34615388,15.8610079 7.38076923,14.9203215 C6.41538461,13.9796352 5.88461538,12.7278852 5.88461541,11.3974323 C5.88461541,10.288097 6.26153849,9.26121229 6.89230769,8.43295857 C6.7923077,8.69155361 6.73461537,8.97263521 6.7346154,9.26870781 C6.7346154,10.5654309 7.81923079,11.6222976 9.15,11.6222976 C10.4807692,11.6222976 11.5653846,10.5654309 11.5653846,9.26870781 C11.5653846,7.97198476 10.4807692,6.915118 9.15,6.91511803 C8.98846153,6.91511803 8.83076924,6.93010904 8.67692309,6.96009108 C9.37307694,6.61154991 10.1615385,6.4166667 10.9961539,6.41666667 C12.3615385,6.41666667 13.6461539,6.93385678 14.6115385,7.87829092 C15.5769231,8.81897729 16.1076923,10.0707273 16.1076923,11.4011801 C16.1115385,14.1482841 13.8153846,16.3819458 10.9961539,16.3819458 Z" id="形状"></path>
                    </g>
                </g>
            </g>
        </g>
    </g>
</svg>