<?xml version="1.0" encoding="UTF-8"?>
<svg width="48px" height="48px" viewBox="0 0 48 48" version="1.1" xmlns="http://www.w3.org/2000/svg" xmlns:xlink="http://www.w3.org/1999/xlink">
    <!-- Generator: Sketch 53.2 (72643) - https://sketchapp.com -->
    <title>device_water@2x</title>
    <desc>Created with Sketch.</desc>
    <g id="icon" stroke="none" stroke-width="1" fill="none" fill-rule="evenodd">
        <g transform="translate(-776.000000, -147.000000)" id="device_water">
            <g transform="translate(776.000000, 147.000000)">
                <g id="分组-9-copy-4">
                    <circle id="椭圆形" fill="#93C07C" cx="24" cy="24" r="24"></circle>
                    <g id="shuibiao" transform="translate(13.000000, 10.000000)" fill="#FFFFFF" fill-rule="nonzero" stroke="#93C07C" stroke-width="0.5">
                        <path d="M17.4011802,25.296875 L4.75649934,25.296875 C2.45224402,25.296875 0.58203125,23.51572 0.58203125,21.3211911 L0.58203125,9.27255889 C0.58203125,7.07803002 2.45224402,5.296875 4.75649934,5.296875 L7.46926529,5.296875 L7.46926529,7.13882029 L4.75649934,7.13882029 C3.52458444,7.13882029 2.5160738,8.09322758 2.5160738,9.27255889 L2.5160738,21.3211911 C2.5160738,22.4944434 3.51820146,23.4549297 4.75649934,23.4549297 L17.4075632,23.4549297 C18.6394781,23.4549297 19.6479887,22.5005224 19.6479887,21.3211911 L19.6479887,9.27255889 C19.6479887,8.09930661 18.645861,7.13882029 17.4075632,7.13882029 L14.5990525,7.13882029 L14.5990525,5.296875 L17.4075632,5.296875 C19.7118185,5.296875 21.5820312,7.07803002 21.5820312,9.27255889 L21.5820312,21.3211911 C21.5756483,23.509641 19.7054355,25.296875 17.4011802,25.296875 Z" id="路径"></path>
                        <path d="M11.0789431,16.500068 C9.59045348,16.500068 8.19460845,15.8962944 7.15698914,14.7932466 C6.14407505,13.7192262 5.58203125,12.3026805 5.58203125,10.7990521 C5.58203125,9.15609126 6.39112726,7.03127268 7.99079037,4.47684597 C9.14575949,2.63069213 10.2945523,1.2489795 10.3377864,1.19092435 L11.0851194,0.296875 L11.8262761,1.19672986 C11.8756865,1.25478501 13.018303,2.6597197 14.1732721,4.51748458 C15.7729352,7.08932783 16.5820312,9.19672986 16.5820312,10.7990521 C16.5820312,12.3026805 16.0261638,13.7192262 15.0070734,14.7932466 C13.9632777,15.8962944 12.573609,16.500068 11.0789431,16.500068 L11.0789431,16.500068 Z M11.0789431,3.2286602 C10.6651306,3.78018414 10.1277921,4.54070664 9.59662979,5.38831187 C8.19460845,7.62343523 7.45962811,9.49861665 7.45962811,10.7990521 C7.45962811,12.9703148 9.08399644,14.7351914 11.0851194,14.7351914 C13.0862424,14.7351914 14.7106107,12.9703148 14.7106107,10.7990521 C14.7044344,8.62778937 12.511846,5.17931332 11.0789431,3.2286602 L11.0789431,3.2286602 Z M6.57641643,18.5378039 L15.5876461,18.5378039 L15.5876461,20.296875 L6.57641643,20.296875 L6.57641643,18.5378039 Z" id="形状"></path>
                    </g>
                </g>
            </g>
        </g>
    </g>
</svg>