<?xml version="1.0" encoding="UTF-8"?>
<svg width="48px" height="48px" viewBox="0 0 48 48" version="1.1" xmlns="http://www.w3.org/2000/svg" xmlns:xlink="http://www.w3.org/1999/xlink">
    <!-- Generator: Sketch 53.2 (72643) - https://sketchapp.com -->
    <title>device_onu@2x</title>
    <desc>Created with Sketch.</desc>
    <g id="icon" stroke="none" stroke-width="1" fill="none" fill-rule="evenodd">
        <g transform="translate(-336.000000, -235.000000)" id="device_onu">
            <g transform="translate(336.000000, 235.000000)">
                <g id="分组-9-copy-9">
                    <circle id="椭圆形" fill="#ACC75E" cx="24" cy="24" r="24"></circle>
                    <g id="ziyuan-guangjiaojiexiang" transform="translate(12.000000, 14.000000)" fill="#FFFFFF" fill-rule="nonzero">
                        <path d="M1.33333333,2.5 L22.6666667,2.5 C23.4030463,2.5 24,3.05964406 24,3.75 L24,18.75 C24,19.4403559 23.4030463,20 22.6666667,20 L1.33333333,20 C0.596953667,20 9.01805001e-17,19.4403559 0,18.75 L0,3.75 C-9.01805001e-17,3.05964406 0.596953667,2.5 1.33333333,2.5 Z M1.33333333,3.75 L1.33333333,18.75 L22.6666667,18.75 L22.6666667,3.75 L1.33333333,3.75 Z M9.65333333,6.25 L11.6026667,8.0725 L12.86,6.87625 L12.8733333,10.0725 L9.48666667,10.08625 L10.7426667,8.89 L8.79466667,7.0675 L9.65333333,6.25 Z M11.604,13.70625 L9.68133333,15.5525 L8.81066667,14.74625 L10.7333333,12.90125 L9.45866667,11.71875 L12.848,11.69125 L12.8786667,14.8875 L11.604,13.70625 L11.604,13.70625 Z M17.7906667,15.54625 L15.8546667,13.71 L14.588,14.8975 L14.596,11.7025 L17.9853333,11.71125 L16.7186667,12.89875 L18.6546667,14.73375 L17.7893333,15.54625 L17.7906667,15.54625 Z M16.7106667,8.89 L17.9653333,10.09 L14.5773333,10.06625 L14.6013333,6.87125 L15.8546667,8.07125 L17.8106667,6.25375 L18.6666667,7.0725 L16.712,8.89 L16.7106667,8.89 Z M3.33333333,0 L20.6666667,0 C21.0348565,2.11360547e-17 21.3333333,0.279822031 21.3333333,0.625 C21.3333333,0.970177969 21.0348565,1.25 20.6666667,1.25 L3.33333333,1.25 C2.9651435,1.25 2.66666667,0.970177969 2.66666667,0.625 C2.66666667,0.279822031 2.9651435,6.34081642e-17 3.33333333,0 Z M3.33333333,6.25 C3.70152317,6.25 4,6.52982203 4,6.875 L4,15.625 C4,15.970178 3.70152317,16.25 3.33333333,16.25 C2.9651435,16.25 2.66666667,15.970178 2.66666667,15.625 L2.66666667,6.875 C2.66666667,6.52982203 2.9651435,6.25 3.33333333,6.25 Z" id="形状"></path>
                    </g>
                </g>
            </g>
        </g>
    </g>
</svg>