<?xml version="1.0" encoding="UTF-8"?>
<svg width="48px" height="48px" viewBox="0 0 48 48" version="1.1" xmlns="http://www.w3.org/2000/svg" xmlns:xlink="http://www.w3.org/1999/xlink">
    <!-- Generator: Sketch 53.2 (72643) - https://sketchapp.com -->
    <title>device_gas@2x</title>
    <desc>Created with Sketch.</desc>
    <g id="icon" stroke="none" stroke-width="1" fill="none" fill-rule="evenodd">
        <g transform="translate(-864.000000, -147.000000)" id="device_gas">
            <g transform="translate(864.000000, 147.000000)">
                <g id="分组-9-copy-5">
                    <circle id="椭圆形" fill="#F87837" cx="24" cy="24" r="24"></circle>
                    <g id="zhihuiranqiill" transform="translate(13.000000, 10.000000)" fill="#FFFFFF" fill-rule="nonzero">
                        <path d="M8.34633916,8 C8.18292394,8 8.01950875,8.08695651 7.85609354,8.26086957 C7.2024327,9.13043477 6.87560229,9.39130434 6.30364907,9.91304347 L6.05852626,10.173913 C4.58778938,11.5652174 4.09754376,12.7826087 4.01583614,13.2173913 C3.93412854,13.5652174 4.17925136,13.9130435 4.50608176,14 L4.66949698,14 C4.99632739,14 5.2414502,13.8260869 5.2414502,13.5652174 C5.2414502,13.5652174 5.48657301,12.5217391 6.95730988,11.1304348 L7.0390175,11.0434783 C7.69267834,10.4347826 8.01950875,10.0869565 8.83658478,9.13043477 C8.91829238,9.04347826 9,8.86956521 9,8.69565218 C9,8.52173916 8.9182924,8.3478261 8.83658478,8.26086957 C8.67316957,8.08695651 8.50975438,8 8.34633916,8 L8.34633916,8 Z" id="路径"></path>
                        <path d="M21.1710422,11.625 C20.4143527,9.65624999 19.0901461,8.15625 17.6713532,7.40624999 L17.3875946,7.40624999 L17.3875946,7.59375 C17.576767,9.28125 16.8200775,11.0625 16.063388,11.90625 C15.9688018,12 15.6850432,12.28125 15.4958709,12.28125 C15.4012847,12.09375 15.2121123,11.71875 15.4958709,10.5 C15.8742156,8.34374998 15.4012847,6.09374998 13.8879056,3.9375 C12.563699,2.06249999 10.7665614,0.5625 8.9694238,0 L8.78025141,0 C8.78025141,0 8.68566523,0 8.59107902,0.187500009 C8.59107902,0.187500009 8.49649284,0.375000018 8.49649284,0.468750009 L8.49649284,1.125 C8.59107902,3.65625 6.88852761,5.15624999 4.99680385,6.75 C2.91590766,8.53124999 0.45666676,10.6875 0.0783219841,15 C-0.583781332,20.0625 3.10508005,23.90625 5.37514859,25.78125 C5.46973477,25.875 5.65890716,25.96875 5.84807955,25.96875 C6.13183812,25.96875 6.32101051,25.875 6.41559669,25.6875 C6.51018287,25.5 6.60476907,25.3125 6.41559669,25.03125 C5.84807955,23.625 5.09139003,20.15625 8.87483759,17.25 L9.25318237,16.96875 L9.06400998,17.4375 C8.78025141,18.1875 8.40190666,19.3125 8.40190666,20.71875 C8.30732048,22.96875 9.06400998,25.125 10.6719752,27 C16.9146637,26.15625 20.9818698,22.78125 21.8331455,17.8125 C22.2114903,15.84375 21.9277317,13.59375 21.1710422,11.625 Z M20.4166788,17.7670454 C20.0440721,20.0397727 18.3673419,24.1306818 11.5672698,25.3125 L11.4741181,25.3125 L11.3809664,25.2215909 C8.86587125,21.7670455 10.4494497,18.2215909 10.8220564,17.5852273 C11.1015114,17.1306818 11.0083597,16.6761364 10.7289047,16.2215909 C10.4494497,15.8579546 9.9836913,15.6761364 9.51793296,15.6761364 C9.23847793,15.6761364 8.95902291,15.7670455 8.67956789,15.9488636 C6.16447271,17.6761364 4.67404594,20.0397727 4.67404594,22.5852273 L4.67404594,22.9488636 L4.39459092,22.6761364 C2.90416415,21.0397727 1.3205857,18.4034091 1.60004072,15.0397727 C1.87949574,11.5852272 3.92883254,9.76704545 5.97816935,8.03977273 L6.07132104,7.94886362 L6.16447271,7.85795454 C7.84120283,6.40340909 9.61108462,4.85795454 9.98369133,2.49431816 L9.98369133,2.3125 L10.1699947,2.40340908 C11.1946631,3.03977271 12.1261798,3.94886364 12.8713932,5.03977273 C14.0823649,6.85795456 14.641275,8.67613636 14.2686683,10.3125 C13.9892133,11.7670454 14.0823649,12.6761364 14.5481233,13.2215909 C14.8275783,13.5852273 15.3864884,13.8579545 15.8522468,13.8579545 C16.4111568,13.8579545 16.9700668,13.5852273 17.4358252,13.0397727 C17.9947352,12.4943182 18.4604936,11.6761364 18.7399486,10.7670455 L18.8331003,10.4943182 L19.0194037,10.7670455 C20.2303754,12.5852273 20.8824371,15.3125 20.4166788,17.7670454 L20.4166788,17.7670454 Z" id="形状"></path>
                    </g>
                </g>
            </g>
        </g>
    </g>
</svg>