<?xml version="1.0" encoding="UTF-8"?>
<svg width="48px" height="48px" viewBox="0 0 48 48" version="1.1" xmlns="http://www.w3.org/2000/svg" xmlns:xlink="http://www.w3.org/1999/xlink">
    <!-- Generator: Sketch 53.2 (72643) - https://sketchapp.com -->
    <title>device_attendance@2x</title>
    <desc>Created with Sketch.</desc>
    <g id="icon" stroke="none" stroke-width="1" fill="none" fill-rule="evenodd">
        <g transform="translate(-600.000000, -147.000000)" id="device_attendance">
            <g transform="translate(600.000000, 147.000000)">
                <g id="分组-9-copy-2">
                    <circle id="椭圆形" fill="#70CCCA" cx="24" cy="24" r="24"></circle>
                    <g id="kaoqindaqia" transform="translate(12.000000, 11.000000)" fill="#FFFFFF" fill-rule="nonzero">
                        <path d="M22.6434783,23.816 C22.0173913,24.336 21.1826087,24.752 20.0347826,25.064 C17.9478261,25.688 15.1304348,26 12,26 C8.86956522,26 5.94782609,25.688 3.86086957,25.064 C2.71304348,24.752 1.87826087,24.336 1.25217391,23.816 C0.417391304,23.192 0,22.464 0,21.632 C0,20.592 0.417391304,19.76 1.14782609,19.24 C1.87826087,18.72 2.92173913,18.408 4.27826087,18.304 L5.42608696,19.968 L5.00869565,19.968 C4.48695652,19.968 4.27826087,20.072 4.17391304,20.072 L4.06956522,20.072 C3.13043478,20.176 2.50434783,20.384 2.08695652,20.696 C1.77391304,20.904 1.66956522,21.216 1.66956522,21.632 C1.66956522,21.944 2.19130435,22.672 4.3826087,23.296 C6.36521739,23.92 9.07826087,24.232 12.1043478,24.232 C15.1304348,24.232 17.8434783,23.92 19.826087,23.296 C21.9130435,22.672 22.4347826,21.944 22.4347826,21.632 C22.4347826,21.424 22.3304348,21.216 22.1217391,21.008 C21.9130435,20.8 21.2869565,20.176 20.0347826,19.968 L19.0956522,19.864 L18.6782609,19.864 L19.826087,18.096 C20.4521739,18.2 21.0782609,18.304 21.6,18.512 C22.226087,18.824 22.8521739,19.24 23.2695652,19.656 C23.7913043,20.28 24,20.904 24,21.632 C23.7913043,22.464 23.373913,23.192 22.6434783,23.816 L22.6434783,23.816 Z M11.373913,22.048 C10.9565217,22.048 10.5391304,21.84 10.3304348,21.528 C7.93043478,18.408 2.50434783,12.376 2.50434783,8.632 C2.50434783,3.848 6.46956522,0 11.373913,0 C16.2782609,0 20.3478261,3.848 20.3478261,8.632 C20.3478261,12.376 14.9217391,18.408 12.5217391,21.528 C12.2086957,21.84 11.7913043,22.048 11.373913,22.048 Z M11.373913,1.56 C7.30434783,1.56 4.06956522,4.784 4.06956522,8.632 C4.06956522,10.712 6.57391304,13.936 10.7478261,19.448 C10.8521739,19.656 11.0608696,19.76 11.373913,19.76 C11.5826087,19.76 11.7913043,19.656 12,19.448 C16.173913,13.936 18.6782609,10.712 18.6782609,8.632 C18.6782609,4.784 15.4434783,1.56 11.373913,1.56 Z M9.07826087,7.176 C9.07826087,5.304 11.2695652,5.616 11.2695652,7.072 L11.2695652,10.088 L14.9217391,10.088 C16.5913043,10.088 16.4869565,12.064 15.1304348,12.064 L9.28695652,12.064 C9.1826087,12.272 9.07826087,8.736 9.07826087,7.176 Z" id="形状"></path>
                    </g>
                </g>
            </g>
        </g>
    </g>
</svg>