<?xml version="1.0" encoding="UTF-8"?>
<svg width="48px" height="48px" viewBox="0 0 48 48" version="1.1" xmlns="http://www.w3.org/2000/svg" xmlns:xlink="http://www.w3.org/1999/xlink">
    <!-- Generator: Sketch 53.2 (72643) - https://sketchapp.com -->
    <title>device_environment@2x</title>
    <desc>Created with Sketch.</desc>
    <g id="icon" stroke="none" stroke-width="1" fill="none" fill-rule="evenodd">
        <g transform="translate(-72.000000, -147.000000)" id="device_environment">
            <g transform="translate(72.000000, 147.000000)">
                <g id="分组-9">
                    <circle id="椭圆形" fill="#93C07C" cx="24" cy="24" r="24"></circle>
                    <g id="huanjingjiance" transform="translate(9.882353, 9.882353)" fill="#FFFFFF" fill-rule="nonzero">
                        <path d="M14.1176465,0 C21.9145893,0 28.2352764,6.32069483 28.2352764,14.1176471 C28.2401104,17.1627093 27.2558856,20.1269809 25.4307003,22.5644216 C22.8507429,26.0050217 18.739828,28.2352941 14.1176465,28.2352941 L14.1135407,28.2352941 C9.51210929,28.2339992 5.41812296,26.0221713 2.83709175,22.6067746 C0.99153741,20.1618616 -0.0046954998,17.1809225 1.6639447e-05,14.1176471 C1.6639447e-05,6.32069483 6.32070378,0 14.1176465,0 Z M14.1176465,26.1160679 C20.7409626,26.1160679 26.1295071,20.7286854 26.1295071,14.1067509 C26.1295071,7.48481642 20.7409626,2.09740229 14.1176465,2.09740229 C7.49433046,2.09740229 2.10578589,7.48475326 2.10578589,14.1066877 C2.10578589,20.7286222 7.49426729,26.1160679 14.1176465,26.1160679 Z M6.20267786,9.16143703 C6.56853251,9.16190684 6.90829099,9.35098059 7.10152644,9.6616414 C7.29476189,9.97230221 7.31416349,10.360643 7.15285436,10.689017 C6.62849397,11.751813 6.35731566,12.9215804 6.3605616,14.1066877 C6.3605616,18.3830399 9.8403205,21.8620766 14.1175834,21.8620766 C18.3948462,21.8620766 21.8744472,18.3829767 21.8744472,14.1066877 C21.8777568,12.9215768 21.6065865,11.7517975 21.082186,10.689017 C20.8272132,10.1642993 21.0442269,9.53218028 21.5677294,9.2747227 C22.0912319,9.01726513 22.7243717,9.23128019 22.9843077,9.75355705 C23.6524779,11.1071832 23.9981492,12.5971378 23.9942393,14.1066877 C23.9942393,19.5516147 19.5635459,23.981366 14.1175202,23.981366 C8.67149444,23.981366 4.24089581,19.5516463 4.24089581,14.1066877 C4.2370077,12.5971402 4.58267786,11.1071906 5.25082746,9.75355705 C5.42925206,9.3908336 5.79844619,9.16116806 6.20267786,9.16143703 L6.20267786,9.16143703 Z M14.1176465,17.2856218 C12.5691456,17.2859638 11.2456775,16.1705094 10.9837795,14.6443147 C10.7218816,13.11812 11.5977567,11.6252531 13.057782,11.1093249 L13.057782,5.27633636 C13.0577821,4.69098867 13.5322995,4.21647063 14.1176465,4.21647063 C14.7029935,4.21647063 15.177511,4.69098867 15.177511,5.27633636 L15.177511,11.1093249 C16.6375363,11.6252531 17.5134115,13.11812 17.2515135,14.6443147 C16.9896155,16.1705094 15.6661474,17.2859638 14.1176465,17.2856218 Z M14.1176465,13.0471694 C13.5324504,13.0472915 13.0581428,13.5217646 13.0582242,14.1069614 C13.0583056,14.6921582 13.5327452,15.1664994 14.1179413,15.1664587 C14.7031374,15.166418 15.177511,14.6920109 15.177511,14.1068141 C15.1768843,13.5217312 14.7027286,13.0475891 14.1176465,13.0469799 L14.1176465,13.0471694 Z" id="形状"></path>
                    </g>
                </g>
            </g>
        </g>
    </g>
</svg>