<?xml version="1.0" encoding="UTF-8"?>
<svg width="48px" height="48px" viewBox="0 0 48 48" version="1.1" xmlns="http://www.w3.org/2000/svg" xmlns:xlink="http://www.w3.org/1999/xlink">
    <!-- Generator: Sketch 53.2 (72643) - https://sketchapp.com -->
    <title>device_smoke@2x</title>
    <desc>Created with Sketch.</desc>
    <g id="icon" stroke="none" stroke-width="1" fill="none" fill-rule="evenodd">
        <g transform="translate(-336.000000, -147.000000)" id="device_smoke">
            <g transform="translate(336.000000, 147.000000)">
                <g id="分组-9">
                    <circle id="椭圆形" fill="#F87837" cx="24" cy="24" r="24"></circle>
                    <g id="smoke" transform="translate(12.000000, 14.000000)" fill="#FFFFFF" fill-rule="nonzero">
                        <path d="M21.3571429,1.64285714 L21.3571429,6.57142857 C21.3571429,10.2007284 18.4150141,13.1428571 14.7857143,13.1428571 L8.21428571,13.1428571 C4.58498593,13.1428571 1.64285714,10.2007284 1.64285714,6.57142857 L1.64285714,1.64285714 L0,1.64285714 L0,0 L23,0 L23,1.64285714 L21.3571429,1.64285714 Z M19.7142857,1.64285714 L3.28571429,1.64285714 L3.28571429,6.57142857 C3.28571429,9.29340341 5.49231088,11.5 8.21428571,11.5 L14.7857143,11.5 C17.5076891,11.5 19.7142857,9.29340341 19.7142857,6.57142857 L19.7142857,1.64285714 Z M14.7857143,4.92857143 L18.0714286,4.92857143 L18.0714286,6.57142857 L14.7857143,6.57142857 L14.7857143,4.92857143 Z M9.85714286,4.92857143 L13.1428571,4.92857143 L13.1428571,6.57142857 L9.85714286,6.57142857 L9.85714286,4.92857143 Z M4.92857143,4.92857143 L8.21428571,4.92857143 L8.21428571,6.57142857 L4.92857143,6.57142857 L4.92857143,4.92857143 Z M8.22578571,19.7849286 C8.25535714,21.0712857 8.96835714,21.3571429 9.85714286,21.3571429 L9.85714286,23 C8.04342857,23 6.57142857,21.9830714 6.57142857,19.7142857 C6.57142857,19.4317143 6.52871429,18.3375714 6.57142857,18.0714286 C6.43507143,17.25 6.02435714,16.4285714 4.92857143,16.4285714 L4.92857143,14.7857143 C8.40485714,14.7857143 8.35557143,18.6086429 8.22578571,19.7849286 L8.22578571,19.7849286 Z M9.85714286,16.4285714 L9.85714286,14.7857143 C13.3317857,14.7857143 13.2841429,18.6086429 13.1543571,19.7849286 C13.1839286,21.0712857 13.8969286,21.3571429 14.7857143,21.3571429 L14.7857143,23 C12.972,23 11.5,21.9830714 11.5,19.7142857 C11.5,19.4317143 11.4572857,18.3375714 11.5,18.0714286 C11.3636429,17.25 10.9529286,16.4285714 9.85714286,16.4285714 L9.85714286,16.4285714 Z M14.7857143,16.4285714 L14.7857143,14.7857143 C18.2603571,14.7857143 18.2127143,18.6086429 18.0829286,19.7849286 C18.1125,21.0712857 18.8255,21.3571429 19.7142857,21.3571429 L19.7142857,23 C17.9005714,23 16.4285714,21.9830714 16.4285714,19.7142857 C16.4285714,19.4317143 16.3858571,18.3375714 16.4285714,18.0714286 C16.2905714,17.25 15.8798571,16.4285714 14.7857143,16.4285714 L14.7857143,16.4285714 Z" id="形状"></path>
                    </g>
                </g>
            </g>
        </g>
    </g>
</svg>