<?xml version="1.0" encoding="UTF-8"?>
<svg width="8px" height="8px" viewBox="0 0 8 8" version="1.1" xmlns="http://www.w3.org/2000/svg" xmlns:xlink="http://www.w3.org/1999/xlink">
    <!-- Generator: Sketch 53.2 (72643) - https://sketchapp.com -->
    <title>link@2x</title>
    <desc>Created with Sketch.</desc>
    <g id="icon" stroke="none" stroke-width="1" fill="none" fill-rule="evenodd">
        <g transform="translate(-285.000000, -355.000000)" fill="#BBBBBB" id="link">
            <g transform="translate(285.000000, 355.000000)">
                <g id="lianjie">
                    <path d="M3.63272203,5.99739688 L6.21536301,5.99739688 C6.54946235,5.99739688 6.79871107,6.2466456 6.79871107,6.58074495 C6.79871107,6.91307657 6.54946235,7.16409301 6.21536301,7.16409301 L3.63272203,7.16409301 C1.71651203,7.16409301 0.132633647,5.58021463 0.0902083333,3.62157931 C0.0902083333,1.70536931 1.67408671,0.121490926 3.63272203,0.0808333333 L9.04902042,0.0808333333 C10.9652304,0.0808333333 12.5491088,1.66294399 12.5897664,3.62157931 C12.5897664,3.95567866 12.3405177,4.20492738 12.0064183,4.20492738 C11.8505351,4.20885085 11.6998677,4.14865191 11.5896067,4.03839092 C11.4793457,3.92812993 11.4191468,3.77746253 11.4230703,3.62157931 C11.4230703,2.28871737 10.3818824,1.24752946 9.04902042,1.24752946 L3.63272203,1.24752946 C2.29986009,1.24752946 1.25690446,2.28871737 1.25690446,3.62157931 C1.29907205,4.91583846 2.33846289,5.9552293 3.63272203,5.99739688 Z M20.0902083,3.62157931 C20.0902083,5.53778932 18.50633,7.1216677 16.5494624,7.16232529 L11.1313962,7.16232529 C9.21518624,7.16232529 7.63130786,5.58021463 7.59065026,3.62157931 C7.59065026,3.28747997 7.83989898,3.03823125 8.17399833,3.03823125 C8.50809767,3.03823125 8.75734639,3.28747997 8.75734639,3.62157931 C8.75734639,4.95444125 9.80030202,5.99739688 11.1313962,5.99739688 L16.5494624,5.99739688 C17.8823243,5.99739688 18.9235122,4.95444125 18.9235122,3.62157931 C18.9235122,2.28871737 17.8805566,1.24752946 16.5494624,1.24752946 L13.3622607,1.24752946 C13.2063774,1.25145293 13.05571,1.191254 12.945449,1.08099301 C12.8351881,0.970732019 12.7749891,0.820064615 12.7789126,0.664181398 C12.7789126,0.330082052 13.0281613,0.0808333333 13.3622607,0.0808333333 L16.5494624,0.0808333333 C18.4656724,0.0808333333 20.0495507,1.66294399 20.0902083,3.62157931 L20.0902083,3.62157931 Z" id="形状" fill-rule="nonzero"></path>
                </g>
            </g>
        </g>
    </g>
</svg>