<?xml version="1.0" encoding="UTF-8"?>
<svg width="48px" height="48px" viewBox="0 0 48 48" version="1.1" xmlns="http://www.w3.org/2000/svg" xmlns:xlink="http://www.w3.org/1999/xlink">
    <!-- Generator: Sketch 53.2 (72643) - https://sketchapp.com -->
    <title>option_manual@2x</title>
    <desc>Created with Sketch.</desc>
    <g id="icon" stroke="none" stroke-width="1" fill="none" fill-rule="evenodd">
        <g transform="translate(-72.000000, -59.000000)" id="option_manual">
            <g transform="translate(72.000000, 59.000000)">
                <g id="分组-9">
                    <circle id="椭圆形" fill="#5F92E4" cx="24" cy="24" r="24"></circle>
                    <g id="dianji" transform="translate(12.000000, 12.000000)" fill="#FFFFFF" fill-rule="nonzero">
                        <path d="M23.6530961,15.3469413 L10.4402578,7.59643582 C9.9583757,7.31379916 9.64804067,7.52980356 9.75042513,8.07643362 L12.5600973,23.0644186 C12.6626271,23.6111186 13.0098126,23.6862461 13.3317492,23.2314703 C13.3317492,23.2314703 15.1268903,20.694556 16.5988028,19.1457932 L19.4234143,23.293112 C19.6928613,23.6885611 20.2369503,23.7918176 20.6324208,23.5223707 L21.5803788,22.8767747 C21.9759894,22.6073278 22.079246,22.0632119 21.809799,21.6677682 L18.9870717,17.5233566 C20.8738679,16.7517316 23.5410104,16.1016188 23.5410104,16.1016188 C24.0845073,15.9692264 24.1349781,15.6295779 23.6530961,15.3469413 Z M9.73099049,21.726492 C9.67907688,21.7095338 9.62483755,21.6974746 9.56914467,21.6905299 C5.00839577,20.6362682 1.70842171,16.5102683 1.76178352,11.7444652 C1.82385592,6.17955405 6.40200444,1.70269172 11.9669856,1.7648341 C17.233384,1.82371405 21.5252728,5.92693072 21.9179762,11.0834884 C21.9178416,11.0887105 21.9174109,11.0937818 21.9174109,11.0988585 C21.9168187,11.1509175 21.9210179,11.2016682 21.9292816,11.2512669 C21.9826596,11.5763906 22.2155522,11.841773 22.5238684,11.9408196 C22.5759274,11.9527173 22.6279864,11.9640227 22.68018,11.9751936 C22.6917815,11.9766364 22.7036792,11.9776593 22.7152807,11.978666 C22.7370303,11.9805503 22.759076,11.9820038 22.7814177,11.9822999 C22.8043247,11.9825799 22.8269356,11.9817185 22.8495735,11.9802649 C23.3005539,11.9503862 23.6596102,11.5779949 23.6646976,11.1184277 C23.6648322,11.1142286 23.6642669,11.1100132 23.6642669,11.105814 C23.6642669,11.0678169 23.6615213,11.0304012 23.65673,10.9935669 C23.5673899,9.74657937 23.2832997,8.53265762 22.8080986,7.37310979 C22.2277244,5.95732086 21.388805,4.6824842 20.3145488,3.58391591 C19.2402658,2.48541759 17.9844169,1.61822373 16.5819792,1.00646341 C15.129636,0.372888943 13.5833443,0.0426185859 11.9864256,0.0247882559 C10.3893563,0.00687717172 8.83624361,0.302563556 7.36998387,0.903502923 C5.95419494,1.4837802 4.67935828,2.32269964 3.58087073,3.39690195 C2.48222707,4.47118502 1.61502782,5.72701775 1.00335364,7.1294716 C0.369779178,8.58194944 0.0395788013,10.1281065 0.0215977374,11.7250252 C-0.0107412795,14.6227453 1.01626343,17.4226948 2.9135037,19.6094088 C4.56451631,21.5121403 6.76513069,22.8304923 9.19211281,23.3892461 C9.24228754,23.4053429 9.29479335,23.416783 9.34844048,23.4237547 C9.38165702,23.4278193 9.41528808,23.4304303 9.44951674,23.4306995 C9.93199098,23.4362176 10.3275854,23.0494684 10.3329582,22.5669888 C10.3372972,22.1757497 10.0839633,21.8419154 9.73099049,21.726492 Z" id="形状"></path>
                    </g>
                </g>
            </g>
        </g>
    </g>
</svg>