<?xml version="1.0" encoding="UTF-8"?>
<svg width="48px" height="48px" viewBox="0 0 48 48" version="1.1" xmlns="http://www.w3.org/2000/svg" xmlns:xlink="http://www.w3.org/1999/xlink">
    <!-- Generator: Sketch 53.2 (72643) - https://sketchapp.com -->
    <title>option_timing@2x</title>
    <desc>Created with Sketch.</desc>
    <g id="icon" stroke="none" stroke-width="1" fill="none" fill-rule="evenodd">
        <g transform="translate(-160.000000, -59.000000)" id="option_timing">
            <g transform="translate(160.000000, 59.000000)">
                <g id="分组-9">
                    <circle id="椭圆形" fill="#AE88DF" cx="24" cy="24" r="24"></circle>
                    <g id="yanshifuwu" transform="translate(12.000000, 12.000000)" fill="#FFFFFF" fill-rule="nonzero">
                        <polygon id="路径" points="13.0071905 13.2510897 17.9175 8.36175164 17.0031948 7.45125 12.0937049 12.3397718 9.23235165 9.48773731 8.3175 10.3979669 12.1029941 14.17125 13.0179824 13.2617006"></polygon>
                        <path d="M12.1556914,0.73125 C5.80469386,0.73125 0.6375,5.89950754 0.6375,12.2521545 C0.6375,18.6038274 5.80469386,23.77125 12.1556914,23.77125 C18.5089149,23.77125 23.6775,18.6038274 23.6775,12.2521545 C23.6776391,5.89950754 18.5089149,0.73125 12.1556914,0.73125 Z M12.0435577,19.4401781 C11.6799979,19.4404849 11.3853296,19.7351676 11.384946,20.0988216 L11.384946,22.4215386 L11.3543388,22.4191729 C6.34658072,22.0278554 2.31644498,17.9529768 1.98018296,12.9405783 L1.97823523,12.9101023 L4.19767584,12.9101023 C4.56114951,12.9096423 4.85568847,12.6150268 4.85614837,12.2514587 C4.85576512,11.8878363 4.56120375,11.5931362 4.19767584,11.592676 L1.97823523,11.592676 L1.98018296,11.5627567 C2.31686235,6.55021898 6.34658072,2.47506204 11.3536432,2.08304875 L11.3841113,2.08054387 L11.3841113,4.40381751 C11.3844947,4.76749419 11.6791407,5.06221672 12.0427229,5.06260023 C12.4062734,5.06214021 12.7008747,4.76746244 12.7013346,4.40381751 L12.7013346,2.06440133 L12.7311071,2.06607125 C17.861294,2.35274053 21.9897902,6.43513379 22.3339823,11.5620609 L22.3363474,11.5921194 L19.8881874,11.5921194 C19.5246911,11.5925792 19.2301123,11.8871724 19.2295757,12.2507629 C19.2301124,12.6143309 19.5247136,12.9088841 19.8881874,12.9092673 L22.337043,12.9092673 L22.334817,12.9398825 C21.9913206,18.0670879 17.8628244,22.1498986 12.7316636,22.4364288 L12.7020302,22.4380987 L12.7020302,20.0988216 C12.7015703,19.7352536 12.4070314,19.4406381 12.0435577,19.4401781 L12.0435577,19.4401781 Z" id="形状"></path>
                    </g>
                </g>
            </g>
        </g>
    </g>
</svg>