<?xml version="1.0" encoding="UTF-8"?>
<svg width="48px" height="48px" viewBox="0 0 48 48" version="1.1" xmlns="http://www.w3.org/2000/svg" xmlns:xlink="http://www.w3.org/1999/xlink">
    <!-- Generator: Sketch 53.2 (72643) - https://sketchapp.com -->
    <title>option_delay@2x</title>
    <desc>Created with Sketch.</desc>
    <g id="icon" stroke="none" stroke-width="1" fill="none" fill-rule="evenodd">
        <g transform="translate(-248.000000, -59.000000)" id="option_delay">
            <g transform="translate(248.000000, 59.000000)">
                <g id="分组-9">
                    <circle id="椭圆形" fill="#70CCCA" cx="24" cy="24" r="24"></circle>
                    <g id="yanshishijian" transform="translate(11.000000, 11.000000)" fill="#FFFFFF" fill-rule="nonzero">
                        <path d="M12.9808373,6.51583725 C12.4091475,6.51583725 11.9457014,6.99050555 11.9457014,7.57603857 L11.9457014,15.2293914 C11.9543859,15.8112003 12.4127836,16.2806979 12.9808373,16.2895928 L18.5123754,16.2895928 C19.0840652,16.2895928 19.5475113,15.8149245 19.5475113,15.2293914 C19.5475113,14.6438584 19.0840652,14.1691901 18.5123754,14.1691901 L14.0159988,14.1691901 L14.0159988,7.54291873 C13.9985266,6.97034904 13.5401432,6.51554353 12.9808373,6.51583725 L12.9808373,6.51583725 Z" id="路径"></path>
                        <path d="M28.1154339,12.0157611 L26.0457167,9.33527902 L25.9629311,9.33527902 C25.8019748,9.18140547 25.5443624,9.18140547 25.3834061,9.33527902 L23.3468188,11.9996193 C23.2874047,12.0799454 23.2529145,12.1752317 23.2474553,12.2741319 C23.2474553,12.3811969 23.291069,12.4838764 23.3687011,12.5595804 C23.4463333,12.6352844 23.5516242,12.6778111 23.6614092,12.6778043 L24.8038811,12.6778043 L24.8038811,13.0976441 C24.7972929,18.2073803 21.232452,22.6597965 16.1508773,23.9050759 C11.0693025,25.1503554 5.76970781,22.8702382 3.2870734,18.3705054 C0.80443899,13.8707726 1.77325953,8.30143508 5.63870936,4.85194976 C9.50415918,1.40246444 15.2783332,0.954427124 19.6544683,3.76442053 C19.9502419,3.9490254 20.3245355,3.96572341 20.6363564,3.80822456 C20.9481773,3.65072571 21.1501524,3.34295784 21.1661996,3.00085412 C21.1822469,2.6587504 21.0099283,2.33428454 20.7141547,2.14967968 C15.6029434,-1.13451077 8.85709566,-0.611936584 4.34163488,3.41799412 C-0.173825902,7.44792483 -1.30417086,13.9546467 1.59822948,19.2101432 C4.50062982,24.4656396 10.693551,27.1259341 16.628768,25.6668148 C22.563985,24.2076954 26.7236979,19.0022997 26.7246053,13.0330514 C26.7328668,12.8932208 26.7328668,12.7530422 26.7246053,12.6132116 L27.8339473,12.6132116 C27.9147813,12.6380029 28.0014699,12.6380029 28.082304,12.6132116 C28.1730278,12.541362 28.2283785,12.4354584 28.2346894,12.3216493 C28.2410004,12.2078402 28.1976834,12.096733 28.1154339,12.0157611 L28.1154339,12.0157611 Z" id="路径"></path>
                    </g>
                </g>
            </g>
        </g>
    </g>
</svg>