<?xml version="1.0" encoding="UTF-8"?>
<svg width="22px" height="22px" viewBox="0 0 22 22" version="1.1" xmlns="http://www.w3.org/2000/svg" xmlns:xlink="http://www.w3.org/1999/xlink">
    <!-- Generator: Sketch 53.2 (72643) - https://sketchapp.com -->
    <title>select_single@2x</title>
    <desc>Created with Sketch.</desc>
    <g id="icon" stroke="none" stroke-width="1" fill="none" fill-rule="evenodd">
        <g transform="translate(-184.000000, -402.000000)" id="select_single">
            <g transform="translate(184.000000, 402.000000)">
                <g id="分组-10-copy">
                    <circle id="椭圆形" fill="#CACACA" cx="11" cy="11" r="11"></circle>
                    <g id="tiaojianxuangu" transform="translate(5.000000, 6.000000)" fill="#FFFFFF" fill-rule="nonzero">
                        <path d="M10.5454545,5.36577035 L2.45454545,5.36577035 C2.2,5.36577035 1.99999999,5.10484013 2,4.77274709 C2.00000001,4.44065406 2.2,4.17972383 2.45454545,4.17972383 L10.5454545,4.17972383 C10.8,4.17972383 11,4.44065406 11,4.77274709 C11,5.10484013 10.8,5.36577035 10.5454545,5.36577035 Z M10.5325485,9.16111918 L2.46745153,9.16111918 C2.20567868,9.16111918 2,8.90018896 2,8.56809594 C2,8.23600292 2.20567867,7.97507268 2.46745153,7.97507268 L10.5325485,7.97507268 C10.7943213,7.97507268 11,8.2360029 11,8.56809594 C11,8.90018897 10.7849723,9.1611192 10.5325485,9.16111918 Z M10.5454546,1.57042151 L2.45454546,1.57042151 C2.20000001,1.57042151 2,1.30949128 2,0.977398247 C2,0.645305214 2.2,0.384374986 2.45454546,0.384375 L10.5454546,0.384375 C10.8,0.384375 11,0.645305228 11,0.977398247 C11,1.29763081 10.7909091,1.57042151 10.5454546,1.57042151 Z" id="形状"></path>
                        <circle id="椭圆形" cx="0.595" cy="0.979375" r="1"></circle>
                        <circle id="椭圆形-copy" cx="0.595" cy="4.775" r="1"></circle>
                        <circle id="椭圆形-copy-2" cx="0.595" cy="8.575" r="1"></circle>
                    </g>
                </g>
            </g>
        </g>
    </g>
</svg>