<?xml version="1.0" encoding="UTF-8"?>
<svg width="22px" height="22px" viewBox="0 0 22 22" version="1.1" xmlns="http://www.w3.org/2000/svg" xmlns:xlink="http://www.w3.org/1999/xlink">
    <!-- Generator: Sketch 53.2 (72643) - https://sketchapp.com -->
    <title>select_multi@2x</title>
    <desc>Created with Sketch.</desc>
    <g id="icon" stroke="none" stroke-width="1" fill="none" fill-rule="evenodd">
        <g transform="translate(-132.000000, -403.000000)" id="select_multi">
            <g transform="translate(132.000000, 403.000000)">
                <g id="分组-10">
                    <circle id="椭圆形" fill="#CACACA" cx="11" cy="11" r="11"></circle>
                    <g id="tiaojianxuangu" transform="translate(5.000000, 6.000000)" fill="#FFFFFF" fill-rule="nonzero">
                        <path d="M11.3709677,5.36577035 L0.604838701,5.36577035 C0.266129028,5.36577035 -1.41759072e-08,5.10484013 0,4.77274709 C1.41759072e-08,4.44065406 0.266129028,4.17972383 0.604838701,4.17972383 L11.3709677,4.17972383 C11.7096774,4.17972383 11.9758065,4.44065406 11.9758065,4.77274709 C11.9758065,5.10484013 11.7096774,5.36577035 11.3709677,5.36577035 Z M4.06451613,9.16111918 L0.629032254,9.16111918 C0.290322581,9.16111918 0.024193539,8.90018896 0.024193539,8.56809594 C0.024193539,8.23600292 0.290322567,7.97507268 0.629032254,7.97507268 L4.06451613,7.97507268 C4.40322581,7.97507268 4.66935485,8.2360029 4.66935483,8.56809594 C4.66935482,8.90018897 4.39112902,9.1611192 4.06451613,9.16111918 Z M11.3951613,1.57042151 L0.629032254,1.57042151 C0.290322581,1.57042151 0.024193539,1.30949128 0.024193539,0.977398247 C0.024193539,0.645305214 0.290322567,0.384374986 0.629032254,0.384375 L11.3951613,0.384375 C11.733871,0.384375 12,0.645305228 12,0.977398247 C12,1.29763081 11.7217742,1.57042151 11.3951613,1.57042151 Z M8.23790323,10.584375 C8.08064517,10.584375 7.9233871,10.5250727 7.81451613,10.406468 L6.07258065,8.71042152 C5.83064516,8.47321221 5.83064516,8.1055378 6.07258065,7.86832849 C6.31451613,7.63111918 6.68951613,7.63111918 6.93145162,7.86832849 L8.23790323,9.14925872 L10.9475806,6.49251453 C11.1895161,6.25530522 11.5645161,6.25530522 11.8064516,6.49251453 C12.0483871,6.72972384 12.0483871,7.09739825 11.8064516,7.33460756 L8.66129032,10.4183285 C8.54032258,10.5250727 8.39516129,10.584375 8.23790323,10.584375 L8.23790323,10.584375 Z" id="形状"></path>
                    </g>
                </g>
            </g>
        </g>
    </g>
</svg>