<?xml version="1.0" encoding="UTF-8"?>
<svg width="20px" height="20px" viewBox="0 0 20 20" version="1.1" xmlns="http://www.w3.org/2000/svg" xmlns:xlink="http://www.w3.org/1999/xlink">
    <!-- Generator: Sketch 53.2 (72643) - https://sketchapp.com -->
    <title>title_if@2x</title>
    <desc>Created with Sketch.</desc>
    <g id="icon" stroke="none" stroke-width="1" fill="none" fill-rule="evenodd">
        <g transform="translate(-188.000000, -349.000000)" id="title_if">
            <g transform="translate(188.000000, 349.000000)">
                <g id="分组-3">
                    <circle id="椭圆形" fill="#CACACA" cx="10" cy="10" r="10"></circle>
                    <g id="liebiao" transform="translate(4.000000, 6.000000)" fill="#FFFFFF" fill-rule="nonzero">
                        <path d="M0,0.665680473 C0,1.03332565 0.2980353,1.33136095 0.665680473,1.33136095 C1.03332565,1.33136095 1.33136095,1.03332565 1.33136095,0.665680473 C1.33136095,0.2980353 1.03332565,0 0.665680473,0 C0.2980353,0 0,0.2980353 0,0.665680473 Z" id="路径"></path>
                        <path d="M11.316568,1.10946746 L2.88461538,1.10946746 C2.76257396,1.10946746 2.66272189,1.00961538 2.66272189,0.887573964 L2.66272189,0.443786982 C2.66272189,0.321745562 2.76257396,0.221893491 2.88461538,0.221893491 L11.316568,0.221893491 C11.4386095,0.221893491 11.5384615,0.321745562 11.5384615,0.443786982 L11.5384615,0.887573964 C11.5384615,1.00961538 11.4386095,1.10946746 11.316568,1.10946746 Z" id="路径"></path>
                        <path d="M0,4.43786982 C0,4.805515 0.2980353,5.1035503 0.665680473,5.1035503 C1.03332565,5.1035503 1.33136095,4.805515 1.33136095,4.43786982 C1.33136095,4.07022465 1.03332565,3.77218935 0.665680473,3.77218935 C0.2980353,3.77218935 0,4.07022465 0,4.43786982 Z" id="路径"></path>
                        <path d="M11.316568,4.8816568 L2.88461538,4.8816568 C2.76257396,4.8816568 2.66272189,4.78180473 2.66272189,4.65976331 L2.66272189,4.21597633 C2.66272189,4.09393491 2.76257396,3.99408284 2.88461538,3.99408284 L11.316568,3.99408284 C11.4386095,3.99408284 11.5384615,4.09393491 11.5384615,4.21597633 L11.5384615,4.65976331 C11.5384615,4.78180473 11.4386095,4.8816568 11.316568,4.8816568 Z" id="路径"></path>
                        <path d="M0,8.21005917 C0,8.57770435 0.2980353,8.87573964 0.665680473,8.87573964 C1.03332565,8.87573964 1.33136095,8.57770435 1.33136095,8.21005917 C1.33136095,7.842414 1.03332565,7.5443787 0.665680473,7.5443787 C0.2980353,7.5443787 0,7.842414 0,8.21005917 Z" id="路径"></path>
                        <path d="M11.316568,8.65384615 L2.88461538,8.65384615 C2.76257396,8.65384615 2.66272189,8.55399408 2.66272189,8.43195266 L2.66272189,7.98816568 C2.66272189,7.86612426 2.76257396,7.76627219 2.88461538,7.76627219 L11.316568,7.76627219 C11.4386095,7.76627219 11.5384615,7.86612426 11.5384615,7.98816568 L11.5384615,8.43195266 C11.5384615,8.55399408 11.4386095,8.65384615 11.316568,8.65384615 Z" id="路径"></path>
                    </g>
                </g>
            </g>
        </g>
    </g>
</svg>