<?xml version="1.0" encoding="UTF-8"?>
<svg width="20px" height="20px" viewBox="0 0 20 20" version="1.1" xmlns="http://www.w3.org/2000/svg" xmlns:xlink="http://www.w3.org/1999/xlink">
    <!-- Generator: Sketch 53.2 (72643) - https://sketchapp.com -->
    <title>title_device@2x</title>
    <desc>Created with Sketch.</desc>
    <g id="icon" stroke="none" stroke-width="1" fill="none" fill-rule="evenodd">
        <g transform="translate(-35.000000, -349.000000)" id="title_device">
            <g transform="translate(35.000000, 349.000000)">
                <g id="分组-10">
                    <circle id="椭圆形" fill="#CACACA" cx="10" cy="10" r="10"></circle>
                    <g id="shebei" transform="translate(4.000000, 4.000000)" fill="#FFFFFF" fill-rule="nonzero">
                        <path d="M0,11.15625 C0,11.70875 0.4475,12.15625 1,12.15625 L11,12.15625 C11.5525,12.15625 12,11.70875 12,11.15625 L12,8.40625 C12,7.85375 11.5525,7.40625 11,7.40625 L6.675,7.40625 L6.675,4.78125 C6.675,4.43625 6.395,4.15625 6.05,4.15625 C5.705,4.15625 5.425,4.43625 5.425,4.78125 L5.425,7.40625 L1,7.40625 C0.4475,7.40625 1.42221527e-10,7.85375 1.42221527e-10,8.40625 L1.42221527e-10,11.15625 L0,11.15625 Z M1.25,9.78125 C1.25,9.43625 1.53,9.15625 1.875,9.15625 C2.22,9.15625 2.5,9.43625 2.5,9.78125 C2.5,10.12625 2.22,10.40625 1.875,10.40625 C1.53,10.40625 1.25,10.12625 1.25,9.78125 Z M3.5,9.78125 C3.5,9.43625 3.78,9.15625 4.125,9.15625 C4.47,9.15625 4.75,9.43625 4.75,9.78125 C4.75,10.12625 4.47,10.40625 4.125,10.40625 C3.78,10.40625 3.5,10.12625 3.5,9.78125 L3.5,9.78125 Z M6.05,2.15625 C4.6,2.15625 3.425,3.33125 3.425,4.78125 C3.425,5.12625 3.705,5.40625 4.05,5.40625 C4.395,5.40625 4.675,5.12625 4.675,4.78125 C4.675,4.02125 5.29,3.40625 6.05,3.40625 C6.81,3.40625 7.425,4.02125 7.425,4.78125 C7.425,5.12625 7.705,5.40625 8.05,5.40625 C8.395,5.40625 8.675,5.12625 8.675,4.78125 C8.675,3.33125 7.5,2.15625 6.05,2.15625 Z M6.05,0.15625 C3.495,0.15625 1.425,2.22625 1.425,4.78125 C1.425,5.12625 1.705,5.40625 2.05,5.40625 C2.395,5.40625 2.675,5.12625 2.675,4.78125 C2.675,2.91625 4.185,1.40625 6.05,1.40625 C7.915,1.40625 9.425,2.91625 9.425,4.78125 C9.425,5.12625 9.705,5.40625 10.05,5.40625 C10.395,5.40625 10.675,5.12625 10.675,4.78125 C10.675,2.22625 8.605,0.15625 6.05,0.15625 Z" id="形状"></path>
                    </g>
                </g>
            </g>
        </g>
    </g>
</svg>