<?xml version="1.0" encoding="UTF-8"?>
<svg width="20px" height="20px" viewBox="0 0 20 20" version="1.1" xmlns="http://www.w3.org/2000/svg" xmlns:xlink="http://www.w3.org/1999/xlink">
    <!-- Generator: Sketch 53.2 (72643) - https://sketchapp.com -->
    <title>title_manual@2x</title>
    <desc>Created with Sketch.</desc>
    <g id="icon" stroke="none" stroke-width="1" fill="none" fill-rule="evenodd">
        <g transform="translate(-76.000000, -349.000000)" id="title_manual">
            <g transform="translate(76.000000, 349.000000)">
                <g id="分组-3">
                    <circle id="椭圆形" fill="#CACACA" cx="10" cy="10" r="10"></circle>
                    <g id="shoudong" transform="translate(5.000000, 3.000000)" fill="#FFFFFF" fill-rule="nonzero">
                        <path d="M2.83369803,5.49246399 L2.83369803,2.99944178 C2.83369803,2.07882103 3.5808065,1.3332589 4.4998437,1.3332589 C5.4188809,1.3332589 6.16598937,2.08038406 6.16598937,2.99944178 L6.16598937,5.49246399 C6.9724914,4.95322094 7.49921851,4.03885229 7.49921851,2.99944178 C7.49921851,1.339511 6.15973742,0 4.4998437,0 C2.83994998,0 1.5004689,1.339511 1.5004689,2.99944178 C1.5004689,4.03885229 2.027196,4.95322094 2.83369803,5.49246399 Z M9.39356049,7.57943508 L6.36761488,6.07268059 C6.25351672,6.02578989 6.1347296,5.99921849 6.00812754,5.99921849 L5.5001563,5.99921849 L5.5001563,2.99944178 C5.5001563,2.44613152 5.05314161,1.99910684 4.4998437,1.99910684 C3.9465458,1.99910684 3.4995311,2.44613152 3.4995311,2.99944178 L3.4995311,9.15965167 L1.21287902,8.67980351 C1.15973742,8.67355141 1.11284776,8.6594842 1.0534542,8.6594842 C0.847139731,8.6594842 0.659581119,8.74545049 0.526727102,8.87987049 L0,9.41286145 L3.29321663,12.7061516 C3.4729603,12.8858993 3.72616443,13 3.9996874,13 L8.52610191,13 C9.02625821,13 9.41231635,12.6326895 9.48577681,12.1465893 L9.9859331,8.63291281 C9.99218506,8.58602211 10,8.53913141 10,8.50005582 C10,8.08585464 9.74679587,7.72635927 9.39356049,7.57943508 Z" id="形状"></path>
                    </g>
                </g>
            </g>
        </g>
    </g>
</svg>