<?xml version="1.0" encoding="UTF-8"?>
<svg width="20px" height="20px" viewBox="0 0 20 20" version="1.1" xmlns="http://www.w3.org/2000/svg" xmlns:xlink="http://www.w3.org/1999/xlink">
    <!-- Generator: Sketch 53.2 (72643) - https://sketchapp.com -->
    <title>title_execute@2x</title>
    <desc>Created with Sketch.</desc>
    <g id="icon" stroke="none" stroke-width="1" fill="none" fill-rule="evenodd">
        <g transform="translate(-244.000000, -349.000000)" id="title_execute">
            <g transform="translate(244.000000, 349.000000)">
                <g id="分组-4">
                    <g id="分组-3" fill="#CACACA">
                        <circle id="椭圆形" cx="10" cy="10" r="10"></circle>
                    </g>
                    <g id="iconzhenghe072991" transform="translate(4.000000, 5.000000)"></g>
                    <path d="M15.8884722,10.0911154 C15.8910074,10.0881457 15.8935954,10.0852115 15.8960602,10.0821884 C15.8989123,10.0786852 15.9016236,10.075093 15.9043701,10.0715186 C15.9061835,10.0691713 15.9080145,10.0668773 15.909775,10.0644944 C15.9126624,10.0605644 15.9154088,10.0565632 15.9181905,10.0525443 C15.925356,10.0420168 15.9279793,10.0378022 15.9305673,10.0336055 C15.9370638,10.0229535 15.9393877,10.0187745 15.9417293,10.01456 C15.9430673,10.0121415 15.944423,10.0097408 15.9457434,10.0073045 C15.9478385,10.0033389 15.9498279,9.99933779 15.9518173,9.99533664 C15.9532082,9.99250915 15.9546166,9.98971723 15.9559547,9.98685418 C15.9576624,9.98320869 15.9592645,9.97952762 15.9608843,9.97584656 C15.9623279,9.97250337 15.9638068,9.96917797 15.9651976,9.965817 C15.9665181,9.96256272 15.9677681,9.95930845 15.9690181,9.95603639 C15.9704969,9.95215972 15.9719934,9.94828304 15.9733667,9.94435302 C15.9743878,9.94150775 15.9752857,9.93866248 15.9762364,9.93579943 C15.9776977,9.93140705 15.9791413,9.92701467 15.9804617,9.92258673 C15.9839125,9.91028095 15.9852153,9.90549735 15.9864301,9.90066039 C15.9869934,9.89834861 15.9874864,9.89603683 15.9880146,9.89370727 C15.9891589,9.88869249 15.9903033,9.88367771 15.9912892,9.87859179 C15.9917294,9.87628001 15.9921167,9.87393267 15.9925216,9.87160311 C15.9934195,9.86657054 15.9943174,9.86155576 15.9950568,9.85646985 C15.9954442,9.85378463 15.9957259,9.85109941 15.996078,9.84841419 C15.9966766,9.84368393 15.9973104,9.83897146 15.9977681,9.83420564 C15.9981202,9.83064905 15.9983139,9.82709247 15.998578,9.82353589 C15.9988773,9.81958808 15.9992294,9.81567584 15.999423,9.81169246 C15.9997399,9.80511279 15.9998632,9.79851532 15.999916,9.79193564 C15.9998632,9.77932756 15.9997223,9.77274788 15.999423,9.7661682 C15.9992294,9.76220261 15.9988773,9.75827259 15.998578,9.75432478 C15.9983139,9.75076819 15.9981202,9.74721161 15.9977681,9.74365503 C15.997328,9.73888921 15.9966766,9.73417673 15.996078,9.72944648 C15.9957259,9.72676126 15.9954618,9.72407604 15.9950568,9.72139082 C15.9943174,9.7163049 15.9934195,9.71127234 15.9925216,9.70623977 C15.9921167,9.70391021 15.9917294,9.70158065 15.9912892,9.69926887 C15.9903033,9.69418296 15.9891765,9.68916817 15.9880146,9.68415339 C15.9852329,9.6723811 15.9839125,9.6675975 15.9825744,9.66281389 C15.9791413,9.65084599 15.9776977,9.64645361 15.9762364,9.64207901 C15.9752857,9.63921596 15.9743878,9.6363707 15.9733667,9.63352543 C15.9719934,9.62959541 15.9705146,9.62573651 15.9690181,9.62185984 C15.9677681,9.61857 15.9665181,9.61529794 15.96518,9.61204367 C15.9638068,9.6086827 15.9623455,9.60535729 15.9608843,9.60203189 C15.9592645,9.59833304 15.9576448,9.59465198 15.9559547,9.59100648 C15.9546166,9.58816121 15.9532082,9.58535151 15.9518173,9.58252403 C15.9498455,9.57852287 15.9478385,9.57452172 15.9457434,9.57055613 C15.9444406,9.56810208 15.9430849,9.56571917 15.9417293,9.5633007 C15.9393877,9.55910393 15.9370462,9.55490716 15.934599,9.55076374 C15.9332962,9.54855866 15.9319229,9.54642471 15.9305673,9.54425519 C15.9279793,9.54005843 15.9253736,9.53586166 15.9226272,9.53173602 C15.9154264,9.52129745 15.91268,9.51729629 15.9097926,9.51338405 C15.9080321,9.51100114 15.9062011,9.50870714 15.9043877,9.5063598 C15.9016588,9.50278543 15.8989299,9.49919328 15.8960778,9.49569005 C15.893613,9.49264917 15.891025,9.48973277 15.8884898,9.48676303 C15.8861482,9.48404224 15.8838947,9.48128589 15.8815003,9.47861845 C15.8764299,9.47296348 15.8712362,9.467433 15.8658841,9.46202699 L11.5824451,5.1354258 C11.4036772,4.95485807 11.1138705,4.95485807 10.935085,5.1354258 C10.7563348,5.31597574 10.7563348,5.61318161 10.935085,5.79374934 L14.4370969,9.3354482 L4.45774711,9.3354482 C4.20494747,9.3354482 4,9.54245912 4,9.79780401 C4,10.0531489 4.20494747,10.2601598 4.45774711,10.2601598 L14.4370969,10.2601598 L10.9351027,13.7929672 C10.7563524,13.9735172 10.7563524,14.2640544 10.9351027,14.4446222 C11.0244866,14.534906 11.141617,14.5789365 11.2587827,14.5789365 C11.3759483,14.5789365 11.4930788,14.5332522 11.5824627,14.4429684 L15.8658665,10.1161182 C15.8712186,10.11073 15.8764123,10.1050394 15.8814827,10.0994023 C15.8838947,10.0967348 15.8861482,10.0938184 15.8884722,10.0911154 Z" id="路径" fill="#FFFFFF" fill-rule="nonzero"></path>
                </g>
            </g>
        </g>
    </g>
</svg>